# This file uses centimeters as units for non-parametric coordinates.

mtllib DECO_UNI_CARDBOARD_MODEL.mtl
g default
v -0.404382 0.000000 0.404382
v 0.404382 0.000000 0.404382
v -0.404382 0.808325 0.403368
v 0.404382 0.808325 0.403368
v -0.404382 0.808325 -0.403368
v 0.404382 0.808325 -0.403368
v -0.404382 0.000000 -0.404382
v 0.404382 0.000000 -0.404382
v -0.404382 0.821698 0.404382
v 0.404382 0.821698 0.404382
v -0.404382 0.821698 -0.404382
v 0.404382 0.821698 -0.404382
v -0.404382 0.880206 0.005870
v 0.404382 0.880206 0.005870
v -0.404382 0.880206 -0.005870
v 0.404382 0.880206 -0.005870
v -0.404382 0.866394 0.003842
v 0.404382 0.866394 0.003842
v -0.404382 0.866394 -0.003842
v 0.404382 0.866394 -0.003842
vt 0.375000 0.000000
vt 0.625000 0.000000
vt 0.812500 0.625000
vt 0.187500 0.625000
vt 0.375000 0.500000
vt 0.625000 0.500000
vt 0.625000 0.750000
vt 0.375000 0.750000
vt 0.625000 1.000000
vt 0.375000 1.000000
vt 0.875000 0.000000
vt 0.437500 0.625000
vt 0.125000 0.000000
vt 0.562500 0.625000
vt 0.000000 0.000000
vt 1.000000 0.000000
vt 1.000000 1.000000
vt 0.000000 1.000000
vt 0.000000 0.000000
vt 1.000000 0.000000
vt 1.000000 1.000000
vt 0.000000 1.000000
vt 0.000000 0.000000
vt 1.000000 0.000000
vt 1.000000 1.000000
vt 0.000000 1.000000
vt 0.000000 0.000000
vt 1.000000 0.000000
vt 1.000000 1.000000
vt 0.000000 1.000000
vt 0.000000 0.000000
vt 1.000000 0.000000
vt 0.500000 1.000000
vt 0.000000 0.000000
vt 1.000000 0.000000
vt 0.500000 1.000000
vt 0.000000 0.000000
vt 1.000000 0.000000
vt 0.000000 0.000000
vt 1.000000 0.000000
vt 0.500000 1.000000
vt 0.000000 0.000000
vt 1.000000 0.000000
vt 0.500000 1.000000
vt 0.000000 0.000000
vt 1.000000 0.000000
vn 0.000000 0.001254 0.999999
vn 0.000000 0.001254 0.999999
vn 0.000000 0.000000 1.000000
vn 0.000000 0.000000 1.000000
vn 0.000000 0.000000 -1.000000
vn 0.000000 0.000000 -1.000000
vn 0.000000 0.001254 -0.999999
vn 0.000000 0.001254 -0.999999
vn 0.000000 -1.000000 0.000000
vn 0.000000 -1.000000 0.000000
vn 0.000000 -1.000000 0.000000
vn 0.000000 -1.000000 0.000000
vn 1.000000 0.000000 0.000000
vn 1.000000 0.000000 0.000000
vn 1.000000 0.000000 0.000000
vn 1.000000 0.000000 0.000000
vn -1.000000 0.000000 0.000000
vn -1.000000 0.000000 0.000000
vn -1.000000 0.000000 0.000000
vn -1.000000 0.000000 0.000000
vn 0.000000 -0.075603 0.997138
vn 0.000000 -0.075603 0.997138
vn 0.000000 -0.075603 -0.997138
vn 0.000000 -0.075603 -0.997138
vn 0.000000 0.989394 0.145259
vn 0.000000 0.989394 0.145259
vn 0.000000 0.989394 0.145259
vn 0.000000 0.989394 0.145259
vn 0.000000 0.989394 -0.145259
vn 0.000000 0.989394 -0.145259
vn 0.000000 0.989394 -0.145259
vn 0.000000 0.989394 -0.145259
vn -1.000000 -0.000001 0.000000
vn -1.000000 -0.000001 0.000000
vn -1.000000 -0.000001 0.000000
vn -1.000000 -0.000001 0.000000
vn 1.000000 -0.000001 0.000000
vn 1.000000 -0.000001 0.000000
vn 1.000000 -0.000001 0.000000
vn 1.000000 -0.000001 0.000000
vn 0.000000 0.145259 -0.989394
vn 0.000000 0.145259 -0.989394
vn 0.000000 0.145259 -0.989394
vn 0.000000 0.145259 -0.989394
vn -1.000000 -0.000001 0.000000
vn -1.000000 -0.000001 0.000000
vn -1.000000 -0.000001 0.000000
vn -1.000000 -0.000001 0.000000
vn 1.000000 -0.000001 0.000000
vn 1.000000 -0.000001 0.000000
vn 1.000000 -0.000001 0.000000
vn 1.000000 -0.000001 0.000000
vn 0.000000 0.145259 0.989394
vn 0.000000 0.145259 0.989394
vn 0.000000 0.145259 0.989394
vn 0.000000 0.145259 0.989394
vn 0.000000 1.000000 0.000000
vn 0.000000 1.000000 0.000000
vn 0.000000 1.000000 0.000000
vn 0.000000 1.000000 0.000000
vn 0.000000 -0.989602 -0.143832
vn 0.000000 -0.989602 -0.143832
vn 0.000000 -0.989602 -0.143832
vn 0.000000 -0.989602 -0.143832
vn 0.000000 -0.989602 0.143832
vn 0.000000 -0.989602 0.143832
vn 0.000000 -0.989602 0.143832
vn 0.000000 -0.989602 0.143832
s 1
g cardboard
usemtl initialShadingGroup
f 1/1/1 2/2/2 4/3/3 3/4/4
s 2
f 5/5/5 6/6/6 8/7/7 7/8/8
s off
f 7/8/9 8/7/10 2/9/11 1/10/12
f 2/2/13 8/11/14 6/12/15 4/3/16
f 7/13/17 1/1/18 3/4/19 5/14/20
f 3/15/4 4/16/3 10/17/21 9/18/22
f 6/19/6 5/20/5 11/21/23 12/22/24
f 9/23/25 10/24/26 14/25/27 13/26/28
f 12/27/29 11/28/30 15/29/31 16/30/32
f 9/31/33 13/32/34 17/33/35 3/4/36
f 14/34/37 10/35/38 4/3/39 18/36/40
f 13/37/41 14/38/42 18/36/43 17/33/44
f 15/39/45 11/40/46 5/14/47 19/41/48
f 12/42/49 16/43/50 20/44/51 6/12/52
f 16/45/53 15/46/54 19/41/55 20/44/56
f 5/14/57 3/4/58 4/3/59 6/12/60
s 1
f 3/4/61 17/33/62 18/36/63 4/3/64
s 2
f 19/41/65 5/14/66 6/12/67 20/44/68
