# This file uses centimeters as units for non-parametric coordinates.

mtllib DECO_RU_KITCHENFLOOR_MODEL.mtl
g default
v 0.000000 0.000000 1.000000
v 0.200000 0.000000 1.000000
v 0.400000 0.000000 1.000000
v 0.600000 0.000000 1.000000
v 0.800000 0.000000 1.000000
v 1.000000 0.000000 1.000000
v 0.000000 0.000000 0.800000
v 0.200000 0.000000 0.800000
v 0.400000 0.000000 0.800000
v 0.600000 0.000000 0.800000
v 0.800000 0.000000 0.800000
v 1.000000 0.000000 0.800000
v 0.000000 0.000000 0.600000
v 0.200000 0.000000 0.600000
v 0.400000 0.000000 0.600000
v 0.600000 0.000000 0.600000
v 0.800000 0.000000 0.600000
v 1.000000 0.000000 0.600000
v 0.000000 0.000000 0.400000
v 0.200000 0.000000 0.400000
v 0.400000 0.000000 0.400000
v 0.600000 0.000000 0.400000
v 0.800000 0.000000 0.400000
v 1.000000 0.000000 0.400000
v 0.000000 0.000000 0.200000
v 0.200000 0.000000 0.200000
v 0.400000 0.000000 0.200000
v 0.600000 0.000000 0.200000
v 0.800000 0.000000 0.200000
v 1.000000 0.000000 0.200000
v 0.000000 0.000000 0.000000
v 0.200000 0.000000 0.000000
v 0.400000 0.000000 0.000000
v 0.600000 0.000000 0.000000
v 0.800000 0.000000 0.000000
v 1.000000 0.000000 0.000000
v 0.000000 0.011228 1.000000
v 0.200000 0.011228 1.000000
v 0.200000 0.011228 0.800000
v 0.000000 0.011228 0.800000
v 0.800000 0.011228 1.000000
v 1.000000 0.011228 1.000000
v 1.000000 0.011228 0.800000
v 0.800000 0.011228 0.800000
v 0.200000 0.011228 0.800000
v 0.400000 0.011228 0.800000
v 0.400000 0.011228 0.600000
v 0.200000 0.011228 0.600000
v 0.600000 0.011228 0.800000
v 0.800000 0.011228 0.800000
v 0.800000 0.011228 0.600000
v 0.600000 0.011228 0.600000
v 0.000000 0.011228 0.600000
v 0.200000 0.011228 0.600000
v 0.200000 0.011228 0.400000
v 0.000000 0.011228 0.400000
v 0.400000 0.011228 0.600000
v 0.600000 0.011228 0.600000
v 0.600000 0.011228 0.400000
v 0.400000 0.011228 0.400000
v 0.800000 0.011228 0.600000
v 1.000000 0.011228 0.600000
v 1.000000 0.011228 0.400000
v 0.800000 0.011228 0.400000
v 0.200000 0.011228 0.400000
v 0.400000 0.011228 0.400000
v 0.400000 0.011228 0.200000
v 0.200000 0.011228 0.200000
v 0.600000 0.011228 0.400000
v 0.800000 0.011228 0.400000
v 0.800000 0.011228 0.200000
v 0.600000 0.011228 0.200000
v 0.000000 0.011228 0.200000
v 0.200000 0.011228 0.200000
v 0.200000 0.011228 0.000000
v 0.000000 0.011228 0.000000
v 0.400000 0.011228 0.200000
v 0.600000 0.011228 0.200000
v 0.600000 0.011228 0.000000
v 0.400000 0.011228 0.000000
v 0.800000 0.011228 0.200000
v 1.000000 0.011228 0.200000
v 1.000000 0.011228 0.000000
v 0.800000 0.011228 0.000000
vt 0.000000 0.000000
vt 0.200000 0.000000
vt 0.400000 0.000000
vt 0.600000 0.000000
vt 0.800000 0.000000
vt 1.000000 0.000000
vt 0.000000 0.200000
vt 0.200000 0.200000
vt 0.400000 0.200000
vt 0.600000 0.200000
vt 0.800000 0.200000
vt 1.000000 0.200000
vt 0.000000 0.400000
vt 0.200000 0.400000
vt 0.400000 0.400000
vt 0.600000 0.400000
vt 0.800000 0.400000
vt 1.000000 0.400000
vt 0.000000 0.600000
vt 0.200000 0.600000
vt 0.400000 0.600000
vt 0.600000 0.600000
vt 0.800000 0.600000
vt 1.000000 0.600000
vt 0.000000 0.800000
vt 0.200000 0.800000
vt 0.400000 0.800000
vt 0.600000 0.800000
vt 0.800000 0.800000
vt 1.000000 0.800000
vt 0.000000 1.000000
vt 0.200000 1.000000
vt 0.400000 1.000000
vt 0.600000 1.000000
vt 0.800000 1.000000
vt 1.000000 1.000000
vt 0.000000 0.000000
vt 0.200000 0.000000
vt 0.200000 0.200000
vt 0.000000 0.200000
vt 0.800000 0.000000
vt 1.000000 0.000000
vt 1.000000 0.200000
vt 0.800000 0.200000
vt 0.400000 0.200000
vt 0.400000 0.400000
vt 0.200000 0.400000
vt 0.600000 0.200000
vt 0.800000 0.400000
vt 0.600000 0.400000
vt 0.000000 0.400000
vt 0.200000 0.600000
vt 0.000000 0.600000
vt 0.600000 0.600000
vt 0.400000 0.600000
vt 1.000000 0.400000
vt 1.000000 0.600000
vt 0.800000 0.600000
vt 0.400000 0.800000
vt 0.200000 0.800000
vt 0.800000 0.800000
vt 0.600000 0.800000
vt 0.000000 0.800000
vt 0.200000 1.000000
vt 0.000000 1.000000
vt 0.600000 1.000000
vt 0.400000 1.000000
vt 1.000000 0.800000
vt 1.000000 1.000000
vt 0.800000 1.000000
vt 0.200000 0.200000
vt 0.800000 0.200000
vt 0.200000 0.400000
vt 0.400000 0.400000
vt 0.600000 0.400000
vt 0.800000 0.400000
vt 0.200000 0.600000
vt 0.400000 0.600000
vt 0.600000 0.600000
vt 0.800000 0.600000
vt 0.200000 0.800000
vt 0.400000 0.800000
vt 0.600000 0.800000
vt 0.800000 0.800000
vn 0.000000 1.000000 0.000000
vn 0.000000 1.000000 0.000000
vn 0.000000 1.000000 0.000000
vn 0.000000 1.000000 0.000000
vn 0.000000 1.000000 0.000000
vn 0.000000 1.000000 0.000000
vn 0.000000 1.000000 0.000000
vn 0.000000 1.000000 0.000000
vn 0.000000 1.000000 0.000000
vn 0.000000 1.000000 0.000000
vn 0.000000 1.000000 0.000000
vn 0.000000 1.000000 0.000000
vn 0.000000 1.000000 0.000000
vn 0.000000 1.000000 0.000000
vn 0.000000 1.000000 0.000000
vn 0.000000 1.000000 0.000000
vn 0.000000 1.000000 0.000000
vn 0.000000 1.000000 0.000000
vn 0.000000 1.000000 0.000000
vn 0.000000 1.000000 0.000000
vn 0.000000 1.000000 0.000000
vn 0.000000 1.000000 0.000000
vn 0.000000 1.000000 0.000000
vn 0.000000 1.000000 0.000000
vn 0.000000 1.000000 0.000000
vn 0.000000 1.000000 0.000000
vn 0.000000 1.000000 0.000000
vn 0.000000 1.000000 0.000000
vn 0.000000 1.000000 0.000000
vn 0.000000 1.000000 0.000000
vn 0.000000 1.000000 0.000000
vn 0.000000 1.000000 0.000000
vn 0.000000 1.000000 0.000000
vn 0.000000 1.000000 0.000000
vn 0.000000 1.000000 0.000000
vn 0.000000 1.000000 0.000000
vn 0.000000 1.000000 0.000000
vn 0.000000 1.000000 0.000000
vn 0.000000 1.000000 0.000000
vn 0.000000 1.000000 0.000000
vn 0.000000 1.000000 0.000000
vn 0.000000 1.000000 0.000000
vn 0.000000 1.000000 0.000000
vn 0.000000 1.000000 0.000000
vn 0.000000 1.000000 0.000000
vn 0.000000 1.000000 0.000000
vn 0.000000 1.000000 0.000000
vn 0.000000 1.000000 0.000000
vn 0.000000 1.000000 0.000000
vn 0.000000 1.000000 0.000000
vn 0.000000 1.000000 0.000000
vn 0.000000 1.000000 0.000000
vn 0.000000 1.000000 0.000000
vn 0.000000 1.000000 0.000000
vn 0.000000 1.000000 0.000000
vn 0.000000 1.000000 0.000000
vn 0.000000 1.000000 0.000000
vn 0.000000 1.000000 0.000000
vn 0.000000 1.000000 0.000000
vn 0.000000 1.000000 0.000000
vn 0.000000 1.000000 0.000000
vn 0.000000 1.000000 0.000000
vn 0.000000 1.000000 0.000000
vn 0.000000 1.000000 0.000000
vn 0.000000 1.000000 0.000000
vn 0.000000 1.000000 0.000000
vn 0.000000 1.000000 0.000000
vn 0.000000 1.000000 0.000000
vn 0.000000 1.000000 0.000000
vn 0.000000 1.000000 0.000000
vn 0.000000 1.000000 0.000000
vn 0.000000 1.000000 0.000000
vn 0.000000 1.000000 0.000000
vn 0.000000 1.000000 0.000000
vn 0.000000 1.000000 0.000000
vn 0.000000 1.000000 0.000000
vn 0.000000 1.000000 0.000000
vn 0.000000 1.000000 0.000000
vn 0.000000 1.000000 0.000000
vn 0.000000 1.000000 0.000000
vn 0.000000 1.000000 0.000000
vn 0.000000 1.000000 0.000000
vn 0.000000 1.000000 0.000000
vn 0.000000 1.000000 0.000000
vn 0.000000 1.000000 0.000000
vn 0.000000 1.000000 0.000000
vn 0.000000 1.000000 0.000000
vn 0.000000 1.000000 0.000000
vn 0.000000 1.000000 0.000000
vn 0.000000 1.000000 0.000000
vn 0.000000 1.000000 0.000000
vn 0.000000 1.000000 0.000000
vn 0.000000 1.000000 0.000000
vn 0.000000 1.000000 0.000000
vn 0.000000 0.000000 1.000000
vn 0.000000 0.000000 1.000000
vn 0.000000 0.000000 1.000000
vn 0.000000 0.000000 1.000000
vn 1.000000 0.000000 0.000000
vn 1.000000 0.000000 0.000000
vn 1.000000 0.000000 0.000000
vn 1.000000 0.000000 0.000000
vn 0.000000 0.000000 -1.000000
vn 0.000000 0.000000 -1.000000
vn 0.000000 0.000000 -1.000000
vn 0.000000 0.000000 -1.000000
vn -1.000000 0.000000 0.000000
vn -1.000000 0.000000 0.000000
vn -1.000000 0.000000 0.000000
vn -1.000000 0.000000 0.000000
vn 0.000000 0.000000 1.000000
vn 0.000000 0.000000 1.000000
vn 0.000000 0.000000 1.000000
vn 0.000000 0.000000 1.000000
vn 1.000000 0.000000 0.000000
vn 1.000000 0.000000 0.000000
vn 1.000000 0.000000 0.000000
vn 1.000000 0.000000 0.000000
vn 0.000000 0.000000 -1.000000
vn 0.000000 0.000000 -1.000000
vn 0.000000 0.000000 -1.000000
vn 0.000000 0.000000 -1.000000
vn -1.000000 0.000000 0.000000
vn -1.000000 0.000000 0.000000
vn -1.000000 0.000000 0.000000
vn -1.000000 0.000000 0.000000
vn 0.000000 0.000000 1.000000
vn 0.000000 0.000000 1.000000
vn 0.000000 0.000000 1.000000
vn 0.000000 0.000000 1.000000
vn 1.000000 0.000000 0.000000
vn 1.000000 0.000000 0.000000
vn 1.000000 0.000000 0.000000
vn 1.000000 0.000000 0.000000
vn 0.000000 0.000000 -1.000000
vn 0.000000 0.000000 -1.000000
vn 0.000000 0.000000 -1.000000
vn 0.000000 0.000000 -1.000000
vn -1.000000 0.000000 0.000000
vn -1.000000 0.000000 0.000000
vn -1.000000 0.000000 0.000000
vn -1.000000 0.000000 0.000000
vn 0.000000 0.000000 1.000000
vn 0.000000 0.000000 1.000000
vn 0.000000 0.000000 1.000000
vn 0.000000 0.000000 1.000000
vn 1.000000 0.000000 0.000000
vn 1.000000 0.000000 0.000000
vn 1.000000 0.000000 0.000000
vn 1.000000 0.000000 0.000000
vn 0.000000 0.000000 -1.000000
vn 0.000000 0.000000 -1.000000
vn 0.000000 0.000000 -1.000000
vn 0.000000 0.000000 -1.000000
vn -1.000000 0.000000 0.000000
vn -1.000000 0.000000 0.000000
vn -1.000000 0.000000 0.000000
vn -1.000000 0.000000 0.000000
vn 0.000000 0.000000 1.000000
vn 0.000000 0.000000 1.000000
vn 0.000000 0.000000 1.000000
vn 0.000000 0.000000 1.000000
vn 1.000000 0.000000 0.000000
vn 1.000000 0.000000 0.000000
vn 1.000000 0.000000 0.000000
vn 1.000000 0.000000 0.000000
vn 0.000000 0.000000 -1.000000
vn 0.000000 0.000000 -1.000000
vn 0.000000 0.000000 -1.000000
vn 0.000000 0.000000 -1.000000
vn -1.000000 0.000000 0.000000
vn -1.000000 0.000000 0.000000
vn -1.000000 0.000000 0.000000
vn -1.000000 0.000000 0.000000
vn 0.000000 0.000000 1.000000
vn 0.000000 0.000000 1.000000
vn 0.000000 0.000000 1.000000
vn 0.000000 0.000000 1.000000
vn 1.000000 0.000000 0.000000
vn 1.000000 0.000000 0.000000
vn 1.000000 0.000000 0.000000
vn 1.000000 0.000000 0.000000
vn 0.000000 0.000000 -1.000000
vn 0.000000 0.000000 -1.000000
vn 0.000000 0.000000 -1.000000
vn 0.000000 0.000000 -1.000000
vn -1.000000 0.000000 0.000000
vn -1.000000 0.000000 0.000000
vn -1.000000 0.000000 0.000000
vn -1.000000 0.000000 0.000000
vn 0.000000 0.000000 1.000000
vn 0.000000 0.000000 1.000000
vn 0.000000 0.000000 1.000000
vn 0.000000 0.000000 1.000000
vn 1.000000 0.000000 0.000000
vn 1.000000 0.000000 0.000000
vn 1.000000 0.000000 0.000000
vn 1.000000 0.000000 0.000000
vn 0.000000 0.000000 -1.000000
vn 0.000000 0.000000 -1.000000
vn 0.000000 0.000000 -1.000000
vn 0.000000 0.000000 -1.000000
vn -1.000000 0.000000 0.000000
vn -1.000000 0.000000 0.000000
vn -1.000000 0.000000 0.000000
vn -1.000000 0.000000 0.000000
vn 0.000000 0.000000 1.000000
vn 0.000000 0.000000 1.000000
vn 0.000000 0.000000 1.000000
vn 0.000000 0.000000 1.000000
vn 1.000000 0.000000 0.000000
vn 1.000000 0.000000 0.000000
vn 1.000000 0.000000 0.000000
vn 1.000000 0.000000 0.000000
vn 0.000000 0.000000 -1.000000
vn 0.000000 0.000000 -1.000000
vn 0.000000 0.000000 -1.000000
vn 0.000000 0.000000 -1.000000
vn -1.000000 0.000000 0.000000
vn -1.000000 0.000000 0.000000
vn -1.000000 0.000000 0.000000
vn -1.000000 0.000000 0.000000
vn 0.000000 0.000000 1.000000
vn 0.000000 0.000000 1.000000
vn 0.000000 0.000000 1.000000
vn 0.000000 0.000000 1.000000
vn 1.000000 0.000000 0.000000
vn 1.000000 0.000000 0.000000
vn 1.000000 0.000000 0.000000
vn 1.000000 0.000000 0.000000
vn 0.000000 0.000000 -1.000000
vn 0.000000 0.000000 -1.000000
vn 0.000000 0.000000 -1.000000
vn 0.000000 0.000000 -1.000000
vn -1.000000 0.000000 0.000000
vn -1.000000 0.000000 0.000000
vn -1.000000 0.000000 0.000000
vn -1.000000 0.000000 0.000000
vn 0.000000 0.000000 1.000000
vn 0.000000 0.000000 1.000000
vn 0.000000 0.000000 1.000000
vn 0.000000 0.000000 1.000000
vn 1.000000 0.000000 0.000000
vn 1.000000 0.000000 0.000000
vn 1.000000 0.000000 0.000000
vn 1.000000 0.000000 0.000000
vn 0.000000 0.000000 -1.000000
vn 0.000000 0.000000 -1.000000
vn 0.000000 0.000000 -1.000000
vn 0.000000 0.000000 -1.000000
vn -1.000000 0.000000 0.000000
vn -1.000000 0.000000 0.000000
vn -1.000000 0.000000 0.000000
vn -1.000000 0.000000 0.000000
vn 0.000000 0.000000 1.000000
vn 0.000000 0.000000 1.000000
vn 0.000000 0.000000 1.000000
vn 0.000000 0.000000 1.000000
vn 1.000000 0.000000 0.000000
vn 1.000000 0.000000 0.000000
vn 1.000000 0.000000 0.000000
vn 1.000000 0.000000 0.000000
vn 0.000000 0.000000 -1.000000
vn 0.000000 0.000000 -1.000000
vn 0.000000 0.000000 -1.000000
vn 0.000000 0.000000 -1.000000
vn -1.000000 0.000000 0.000000
vn -1.000000 0.000000 0.000000
vn -1.000000 0.000000 0.000000
vn -1.000000 0.000000 0.000000
vn 0.000000 0.000000 1.000000
vn 0.000000 0.000000 1.000000
vn 0.000000 0.000000 1.000000
vn 0.000000 0.000000 1.000000
vn 1.000000 0.000000 0.000000
vn 1.000000 0.000000 0.000000
vn 1.000000 0.000000 0.000000
vn 1.000000 0.000000 0.000000
vn 0.000000 0.000000 -1.000000
vn 0.000000 0.000000 -1.000000
vn 0.000000 0.000000 -1.000000
vn 0.000000 0.000000 -1.000000
vn -1.000000 0.000000 0.000000
vn -1.000000 0.000000 0.000000
vn -1.000000 0.000000 0.000000
vn -1.000000 0.000000 0.000000
s off
g kitchenfloor
usemtl initialShadingGroup
f 37/37/1 38/38/2 39/39/3 40/40/4
s 1
f 2/2/5 3/3/6 9/9/7 8/8/8
f 3/3/6 4/4/9 10/10/10 9/9/7
f 4/4/9 5/5/11 11/11/12 10/10/10
s off
f 41/41/13 42/42/14 43/43/15 44/44/16
f 7/7/17 8/8/18 14/14/19 13/13/20
f 45/71/21 46/45/22 47/46/23 48/47/24
s 1
f 9/9/7 10/10/10 16/16/25 15/15/26
s off
f 49/48/27 50/72/28 51/49/29 52/50/30
f 11/11/31 12/12/32 18/18/33 17/17/34
f 53/51/35 54/73/36 55/52/37 56/53/38
f 14/14/39 15/15/40 21/21/41 20/20/42
f 57/74/43 58/75/44 59/54/45 60/55/46
f 16/16/47 17/17/48 23/23/49 22/22/50
f 61/76/51 62/56/52 63/57/53 64/58/54
f 19/19/55 20/20/56 26/26/57 25/25/58
f 65/77/59 66/78/60 67/59/61 68/60/62
f 21/21/63 22/22/64 28/28/65 27/27/66
f 69/79/67 70/80/68 71/61/69 72/62/70
f 23/23/71 24/24/72 30/30/73 29/29/74
f 73/63/75 74/81/76 75/64/77 76/65/78
f 26/26/79 27/27/80 33/33/81 32/32/82
f 77/82/83 78/83/84 79/66/85 80/67/86
f 28/28/87 29/29/88 35/35/89 34/34/90
f 81/84/91 82/68/92 83/69/93 84/70/94
f 1/1/95 2/2/96 38/38/97 37/37/98
f 2/2/99 8/8/100 39/39/101 38/38/102
f 8/8/103 7/7/104 40/40/105 39/39/106
f 7/7/107 1/1/108 37/37/109 40/40/110
f 5/5/111 6/6/112 42/42/113 41/41/114
f 6/6/115 12/12/116 43/43/117 42/42/118
f 12/12/119 11/11/120 44/44/121 43/43/122
f 11/11/123 5/5/124 41/41/125 44/44/126
f 8/8/127 9/9/128 46/45/129 45/71/130
f 9/9/131 15/15/132 47/46/133 46/45/134
f 15/15/135 14/14/136 48/47/137 47/46/138
f 14/14/139 8/8/140 45/71/141 48/47/142
f 10/10/143 11/11/144 50/72/145 49/48/146
f 11/11/147 17/17/148 51/49/149 50/72/150
f 17/17/151 16/16/152 52/50/153 51/49/154
f 16/16/155 10/10/156 49/48/157 52/50/158
f 13/13/159 14/14/160 54/73/161 53/51/162
f 14/14/163 20/20/164 55/52/165 54/73/166
f 20/20/167 19/19/168 56/53/169 55/52/170
f 19/19/171 13/13/172 53/51/173 56/53/174
f 15/15/175 16/16/176 58/75/177 57/74/178
f 16/16/179 22/22/180 59/54/181 58/75/182
f 22/22/183 21/21/184 60/55/185 59/54/186
f 21/21/187 15/15/188 57/74/189 60/55/190
f 17/17/191 18/18/192 62/56/193 61/76/194
f 18/18/195 24/24/196 63/57/197 62/56/198
f 24/24/199 23/23/200 64/58/201 63/57/202
f 23/23/203 17/17/204 61/76/205 64/58/206
f 20/20/207 21/21/208 66/78/209 65/77/210
f 21/21/211 27/27/212 67/59/213 66/78/214
f 27/27/215 26/26/216 68/60/217 67/59/218
f 26/26/219 20/20/220 65/77/221 68/60/222
f 22/22/223 23/23/224 70/80/225 69/79/226
f 23/23/227 29/29/228 71/61/229 70/80/230
f 29/29/231 28/28/232 72/62/233 71/61/234
f 28/28/235 22/22/236 69/79/237 72/62/238
f 25/25/239 26/26/240 74/81/241 73/63/242
f 26/26/243 32/32/244 75/64/245 74/81/246
f 32/32/247 31/31/248 76/65/249 75/64/250
f 31/31/251 25/25/252 73/63/253 76/65/254
f 27/27/255 28/28/256 78/83/257 77/82/258
f 28/28/259 34/34/260 79/66/261 78/83/262
f 34/34/263 33/33/264 80/67/265 79/66/266
f 33/33/267 27/27/268 77/82/269 80/67/270
f 29/29/271 30/30/272 82/68/273 81/84/274
f 30/30/275 36/36/276 83/69/277 82/68/278
f 36/36/279 35/35/280 84/70/281 83/69/282
f 35/35/283 29/29/284 81/84/285 84/70/286
