# This file uses centimeters as units for non-parametric coordinates.

mtllib DECO_RU_CURTAIN_MODEL.mtl
g default
v 0.134853 1.000000 0.472054
v 0.170505 0.000000 0.486936
v 0.154835 1.000000 0.427396
v 0.190486 0.000000 0.439301
v 0.139262 1.000000 0.382737
v 0.174913 0.000000 0.391667
v 0.110348 1.000000 0.338079
v 0.146000 0.000000 0.344032
v 0.134700 1.000000 0.293421
v 0.170351 0.000000 0.296398
v 0.157613 1.000000 0.248763
v 0.193265 0.000000 0.248763
v 0.134700 1.000000 0.204105
v 0.170351 0.000000 0.201128
v 0.110348 1.000000 0.159447
v 0.146000 0.000000 0.153494
v 0.139262 1.000000 0.114789
v 0.174913 0.000000 0.105859
v 0.172623 1.000000 0.070131
v 0.208274 0.000000 0.058225
v 0.141087 1.000000 0.025472
v 0.176739 0.000000 0.010590
v 0.057362 1.000000 0.484877
v 0.093014 0.000000 0.500614
v 0.084717 1.000000 0.012649
v 0.120368 0.000000 -0.003088
v 0.134853 1.000000 -0.025060
v 0.170505 0.000000 -0.010178
v 0.154835 1.000000 -0.069719
v 0.190486 0.000000 -0.057813
v 0.139262 1.000000 -0.114377
v 0.174913 0.000000 -0.105447
v 0.110348 1.000000 -0.159035
v 0.146000 0.000000 -0.153082
v 0.138735 1.000000 -0.203693
v 0.174386 0.000000 -0.200716
v 0.159216 1.000000 -0.248351
v 0.194867 0.000000 -0.248351
v 0.138735 1.000000 -0.293009
v 0.174386 0.000000 -0.295986
v 0.110348 1.000000 -0.337667
v 0.146000 0.000000 -0.343620
v 0.139262 1.000000 -0.382325
v 0.174913 0.000000 -0.391255
v 0.172623 1.000000 -0.426983
v 0.208274 0.000000 -0.438889
v 0.141087 1.000000 -0.471642
v 0.176739 0.000000 -0.486524
v 0.057362 1.000000 -0.012237
v 0.093014 0.000000 0.003500
v 0.084717 1.000000 -0.484465
v 0.120368 0.000000 -0.500202
v 0.141741 0.932330 0.487030
v 0.139792 0.928504 0.487030
v 0.136756 0.925468 0.487030
v 0.132930 0.923519 0.487030
v 0.128689 0.922847 0.487030
v 0.124449 0.923519 0.487030
v 0.120623 0.925468 0.487030
v 0.117587 0.928504 0.487030
v 0.115638 0.932330 0.487030
v 0.114966 0.936570 0.487030
v 0.115638 0.940811 0.487030
v 0.117587 0.944636 0.487030
v 0.120623 0.947672 0.487030
v 0.124449 0.949622 0.487030
v 0.128689 0.950293 0.487030
v 0.132930 0.949622 0.487030
v 0.136756 0.947672 0.487030
v 0.139792 0.944636 0.487030
v 0.141741 0.940811 0.487030
v 0.142413 0.936570 0.487030
v 0.141741 0.932330 -0.487021
v 0.139792 0.928504 -0.487021
v 0.136756 0.925468 -0.487021
v 0.132930 0.923519 -0.487021
v 0.128689 0.922847 -0.487021
v 0.124449 0.923519 -0.487021
v 0.120623 0.925468 -0.487021
v 0.117587 0.928504 -0.487021
v 0.115638 0.932330 -0.487021
v 0.114966 0.936570 -0.487021
v 0.115638 0.940811 -0.487021
v 0.117587 0.944636 -0.487021
v 0.120623 0.947672 -0.487021
v 0.124449 0.949622 -0.487021
v 0.128689 0.950293 -0.487021
v 0.132930 0.949622 -0.487021
v 0.136756 0.947672 -0.487021
v 0.139792 0.944636 -0.487021
v 0.141741 0.940811 -0.487021
v 0.142413 0.936570 -0.487021
v 0.128689 0.936570 0.487030
v 0.128689 0.936570 -0.487021
vt 0.000000 0.000000
vt 1.000000 0.000000
vt 0.000000 0.100000
vt 1.000000 0.100000
vt 0.000000 0.200000
vt 1.000000 0.200000
vt 0.000000 0.300000
vt 1.000000 0.300000
vt 0.000000 0.400000
vt 1.000000 0.400000
vt 0.000000 0.500000
vt 1.000000 0.500000
vt 0.000000 0.600000
vt 1.000000 0.600000
vt 0.000000 0.700000
vt 1.000000 0.700000
vt 0.000000 0.800000
vt 1.000000 0.800000
vt 0.000000 0.900000
vt 1.000000 0.900000
vt 0.000000 1.000000
vt 1.000000 1.000000
vt 0.000000 0.000000
vt 1.000000 0.000000
vt 1.000000 1.000000
vt 0.000000 1.000000
vt 0.000000 0.000000
vt 1.000000 0.000000
vt 1.000000 1.000000
vt 0.000000 1.000000
vt 0.000000 0.000000
vt 1.000000 0.000000
vt 1.000000 0.100000
vt 0.000000 0.100000
vt 1.000000 0.200000
vt 0.000000 0.200000
vt 1.000000 0.300000
vt 0.000000 0.300000
vt 1.000000 0.400000
vt 0.000000 0.400000
vt 1.000000 0.500000
vt 0.000000 0.500000
vt 1.000000 0.600000
vt 0.000000 0.600000
vt 1.000000 0.700000
vt 0.000000 0.700000
vt 1.000000 0.800000
vt 0.000000 0.800000
vt 1.000000 0.900000
vt 0.000000 0.900000
vt 1.000000 1.000000
vt 0.000000 1.000000
vt 0.000000 0.000000
vt 1.000000 0.000000
vt 1.000000 1.000000
vt 0.000000 1.000000
vt 0.000000 0.000000
vt 1.000000 0.000000
vt 1.000000 1.000000
vt 0.000000 1.000000
vt 0.375000 0.312500
vt 0.387500 0.312500
vt 0.387500 0.687500
vt 0.375000 0.687500
vt 0.400000 0.312500
vt 0.400000 0.687500
vt 0.412500 0.312500
vt 0.412500 0.687500
vt 0.425000 0.312500
vt 0.425000 0.687500
vt 0.437500 0.312500
vt 0.437500 0.687500
vt 0.450000 0.312500
vt 0.450000 0.687500
vt 0.462500 0.312500
vt 0.462500 0.687500
vt 0.475000 0.312500
vt 0.475000 0.687500
vt 0.487500 0.312500
vt 0.487500 0.687500
vt 0.500000 0.312500
vt 0.500000 0.687500
vt 0.512500 0.312500
vt 0.512500 0.687500
vt 0.525000 0.312500
vt 0.525000 0.687500
vt 0.537500 0.312500
vt 0.537500 0.687500
vt 0.550000 0.312500
vt 0.550000 0.687500
vt 0.562500 0.312500
vt 0.562500 0.687500
vt 0.575000 0.312500
vt 0.575000 0.687500
vt 0.587500 0.312500
vt 0.587500 0.687500
vt 0.600000 0.312500
vt 0.600000 0.687500
vt 0.612500 0.312500
vt 0.612500 0.687500
vt 0.625000 0.312500
vt 0.625000 0.687500
vt 0.626409 0.064408
vt 0.648603 0.107966
vt 0.500000 0.156250
vt 0.591842 0.029841
vt 0.548284 0.007647
vt 0.500000 -0.000000
vt 0.451716 0.007647
vt 0.408159 0.029841
vt 0.373591 0.064409
vt 0.351397 0.107966
vt 0.343750 0.156250
vt 0.351397 0.204534
vt 0.373591 0.248091
vt 0.408159 0.282659
vt 0.451716 0.304853
vt 0.500000 0.312500
vt 0.548284 0.304853
vt 0.591841 0.282659
vt 0.626409 0.248091
vt 0.648603 0.204534
vt 0.656250 0.156250
vt 0.648603 0.892034
vt 0.626409 0.935591
vt 0.500000 0.843750
vt 0.591841 0.970159
vt 0.548284 0.992353
vt 0.500000 1.000000
vt 0.451716 0.992353
vt 0.408159 0.970159
vt 0.373591 0.935591
vt 0.351397 0.892034
vt 0.343750 0.843750
vt 0.351397 0.795466
vt 0.373591 0.751909
vt 0.408159 0.717341
vt 0.451716 0.695147
vt 0.500000 0.687500
vt 0.548284 0.695147
vt 0.591842 0.717341
vt 0.626409 0.751908
vt 0.648603 0.795466
vt 0.656250 0.843750
vn 0.515512 0.031158 0.856316
vn 0.524659 0.031390 0.850734
vn 0.998069 0.036751 0.050087
vn 0.998297 0.036702 0.045344
vn 0.901189 0.028451 -0.432492
vn 0.899688 0.028388 -0.435609
vn 0.998073 0.034418 -0.051633
vn 0.998299 0.034454 -0.047025
vn 0.889630 0.033087 0.455481
vn 0.889533 0.033096 0.455671
vn 0.999339 0.036366 0.000000
vn 0.999339 0.036366 0.000000
vn 0.889630 0.033087 -0.455481
vn 0.889533 0.033096 -0.455671
vn 0.998073 0.034418 0.051633
vn 0.998299 0.034454 0.047025
vn 0.828379 0.024462 0.559634
vn 0.829022 0.024522 0.558679
vn 0.999219 0.036489 0.015134
vn 0.999046 0.036375 0.024181
vn 0.563522 0.032152 -0.825475
vn 0.555524 0.031964 -0.830886
vn 0.168509 0.021095 0.985474
vn 0.168509 0.021095 0.985474
vn 0.228761 0.023055 -0.973210
vn 0.228761 0.023055 -0.973210
vn 0.515512 0.031158 0.856316
vn 0.524659 0.031390 0.850734
vn 0.998069 0.036751 0.050087
vn 0.998297 0.036702 0.045344
vn 0.901189 0.028451 -0.432492
vn 0.899688 0.028388 -0.435609
vn 0.999369 0.034659 -0.007748
vn 0.999392 0.034684 -0.003656
vn 0.883550 0.032997 0.467173
vn 0.882995 0.032992 0.468222
vn 0.999341 0.036288 -0.000000
vn 0.999341 0.036288 0.000000
vn 0.883550 0.032997 -0.467173
vn 0.882995 0.032992 -0.468222
vn 0.999369 0.034659 0.007748
vn 0.999392 0.034684 0.003656
vn 0.828379 0.024462 0.559634
vn 0.829022 0.024522 0.558679
vn 0.999219 0.036489 0.015134
vn 0.999046 0.036375 0.024181
vn 0.563522 0.032152 -0.825475
vn 0.555524 0.031964 -0.830886
vn 0.168509 0.021095 0.985474
vn 0.168509 0.021095 0.985474
vn 0.228762 0.023055 -0.973209
vn 0.228762 0.023055 -0.973209
vn 0.951056 -0.309017 0.000000
vn 0.809017 -0.587785 0.000000
vn 0.809017 -0.587785 0.000000
vn 0.951056 -0.309017 0.000000
vn 0.587784 -0.809018 0.000000
vn 0.587784 -0.809018 0.000000
vn 0.309018 -0.951056 0.000000
vn 0.309018 -0.951056 0.000000
vn 0.000000 -1.000000 0.000000
vn 0.000000 -1.000000 0.000000
vn -0.309019 -0.951056 0.000000
vn -0.309019 -0.951056 0.000000
vn -0.587783 -0.809018 0.000000
vn -0.587783 -0.809018 0.000000
vn -0.809017 -0.587786 0.000000
vn -0.809017 -0.587786 0.000000
vn -0.951056 -0.309017 0.000000
vn -0.951056 -0.309017 0.000000
vn -1.000000 0.000000 0.000000
vn -1.000000 0.000000 0.000000
vn -0.951056 0.309017 0.000000
vn -0.951056 0.309017 0.000000
vn -0.809017 0.587786 0.000000
vn -0.809017 0.587786 0.000000
vn -0.587783 0.809018 0.000000
vn -0.587783 0.809018 0.000000
vn -0.309019 0.951056 0.000000
vn -0.309019 0.951056 0.000000
vn 0.000000 1.000000 0.000000
vn 0.000000 1.000000 0.000000
vn 0.309019 0.951056 0.000000
vn 0.309019 0.951056 0.000000
vn 0.587784 0.809018 0.000000
vn 0.587784 0.809018 0.000000
vn 0.809016 0.587786 0.000000
vn 0.809016 0.587786 0.000000
vn 0.951056 0.309019 0.000000
vn 0.951056 0.309019 0.000000
vn 1.000000 0.000000 0.000000
vn 1.000000 0.000000 0.000000
vn 0.000000 0.000000 1.000000
vn 0.000000 0.000000 1.000000
vn 0.000000 0.000000 1.000000
vn 0.000000 0.000000 1.000000
vn 0.000008 0.000000 1.000000
vn 0.000000 0.000000 1.000000
vn -0.000008 0.000000 1.000000
vn 0.000000 0.000000 1.000000
vn 0.000000 0.000000 1.000000
vn 0.000000 0.000000 1.000000
vn 0.000000 0.000000 1.000000
vn 0.000000 0.000000 1.000000
vn 0.000000 0.000000 1.000000
vn 0.000000 0.000000 1.000000
vn -0.000008 0.000000 1.000000
vn 0.000000 0.000000 1.000000
vn 0.000008 0.000000 1.000000
vn 0.000000 0.000000 1.000000
vn 0.000000 0.000000 1.000000
vn 0.000000 0.000000 1.000000
vn 0.000000 0.000000 1.000000
vn -0.000004 0.000000 -1.000000
vn 0.000004 0.000000 -1.000000
vn -0.000000 0.000000 -1.000000
vn 0.000008 0.000000 -1.000000
vn 0.000000 0.000000 -1.000000
vn 0.000000 0.000000 -1.000000
vn 0.000000 0.000000 -1.000000
vn 0.000000 0.000000 -1.000000
vn 0.000008 0.000000 -1.000000
vn 0.000008 0.000000 -1.000000
vn 0.000000 0.000000 -1.000000
vn 0.000004 0.000000 -1.000000
vn -0.000004 0.000000 -1.000000
vn -0.000008 0.000000 -1.000000
vn 0.000000 0.000000 -1.000000
vn 0.000000 0.000000 -1.000000
vn 0.000000 0.000000 -1.000000
vn 0.000000 0.000000 -1.000000
vn -0.000008 0.000000 -1.000000
vn -0.000008 0.000000 -1.000000
vn 0.000000 0.000000 -1.000000
s 1
g curtain
usemtl initialShadingGroup
f 1/1/1 2/2/2 4/4/3 3/3/4
f 3/3/4 4/4/3 6/6/5 5/5/6
f 5/5/6 6/6/5 8/8/7 7/7/8
f 7/7/8 8/8/7 10/10/9 9/9/10
f 9/9/10 10/10/9 12/12/11 11/11/12
f 11/11/12 12/12/11 14/14/13 13/13/14
f 13/13/14 14/14/13 16/16/15 15/15/16
f 15/15/16 16/16/15 18/18/17 17/17/18
f 17/17/18 18/18/17 20/20/19 19/19/20
f 19/19/20 20/20/19 22/22/21 21/21/22
f 2/23/2 1/24/1 23/25/23 24/26/24
f 21/27/22 22/28/21 26/29/25 25/30/26
s 2
f 27/31/27 28/32/28 30/33/29 29/34/30
f 29/34/30 30/33/29 32/35/31 31/36/32
f 31/36/32 32/35/31 34/37/33 33/38/34
f 33/38/34 34/37/33 36/39/35 35/40/36
f 35/40/36 36/39/35 38/41/37 37/42/38
f 37/42/38 38/41/37 40/43/39 39/44/40
f 39/44/40 40/43/39 42/45/41 41/46/42
f 41/46/42 42/45/41 44/47/43 43/48/44
f 43/48/44 44/47/43 46/49/45 45/50/46
f 45/50/46 46/49/45 48/51/47 47/52/48
f 28/53/28 27/54/27 49/55/49 50/56/50
f 47/57/48 48/58/47 52/59/51 51/60/52
s 3
f 53/61/53 54/62/54 74/63/55 73/64/56
f 54/62/54 55/65/57 75/66/58 74/63/55
f 55/65/57 56/67/59 76/68/60 75/66/58
f 56/67/59 57/69/61 77/70/62 76/68/60
f 57/69/61 58/71/63 78/72/64 77/70/62
f 58/71/63 59/73/65 79/74/66 78/72/64
f 59/73/65 60/75/67 80/76/68 79/74/66
f 60/75/67 61/77/69 81/78/70 80/76/68
f 61/77/69 62/79/71 82/80/72 81/78/70
f 62/79/71 63/81/73 83/82/74 82/80/72
f 63/81/73 64/83/75 84/84/76 83/82/74
f 64/83/75 65/85/77 85/86/78 84/84/76
f 65/85/77 66/87/79 86/88/80 85/86/78
f 66/87/79 67/89/81 87/90/82 86/88/80
f 67/89/81 68/91/83 88/92/84 87/90/82
f 68/91/83 69/93/85 89/94/86 88/92/84
f 69/93/85 70/95/87 90/96/88 89/94/86
f 70/95/87 71/97/89 91/98/90 90/96/88
f 71/97/89 72/99/91 92/100/92 91/98/90
f 72/99/91 53/101/53 73/102/56 92/100/92
s 4
f 54/103/93 53/104/94 93/105/95
f 55/106/96 54/103/93 93/105/95
f 56/107/97 55/106/96 93/105/95
f 57/108/98 56/107/97 93/105/95
f 58/109/99 57/108/98 93/105/95
f 59/110/100 58/109/99 93/105/95
f 60/111/101 59/110/100 93/105/95
f 61/112/102 60/111/101 93/105/95
f 62/113/103 61/112/102 93/105/95
f 63/114/104 62/113/103 93/105/95
f 64/115/105 63/114/104 93/105/95
f 65/116/106 64/115/105 93/105/95
f 66/117/107 65/116/106 93/105/95
f 67/118/108 66/117/107 93/105/95
f 68/119/109 67/118/108 93/105/95
f 69/120/110 68/119/109 93/105/95
f 70/121/111 69/120/110 93/105/95
f 71/122/112 70/121/111 93/105/95
f 72/123/113 71/122/112 93/105/95
f 53/104/94 72/123/113 93/105/95
s 5
f 73/124/114 74/125/115 94/126/116
f 74/125/115 75/127/117 94/126/116
f 75/127/117 76/128/118 94/126/116
f 76/128/118 77/129/119 94/126/116
f 77/129/119 78/130/120 94/126/116
f 78/130/120 79/131/121 94/126/116
f 79/131/121 80/132/122 94/126/116
f 80/132/122 81/133/123 94/126/116
f 81/133/123 82/134/124 94/126/116
f 82/134/124 83/135/125 94/126/116
f 83/135/125 84/136/126 94/126/116
f 84/136/126 85/137/127 94/126/116
f 85/137/127 86/138/128 94/126/116
f 86/138/128 87/139/129 94/126/116
f 87/139/129 88/140/130 94/126/116
f 88/140/130 89/141/131 94/126/116
f 89/141/131 90/142/132 94/126/116
f 90/142/132 91/143/133 94/126/116
f 91/143/133 92/144/134 94/126/116
f 92/144/134 73/124/114 94/126/116
