# This file uses centimeters as units for non-parametric coordinates.

mtllib DECO_RU_SHOWCASE_MODEL.mtl
g default
v -0.264726 0.666483 0.447231
v 0.314513 0.602551 0.447231
v -0.258475 0.723119 0.447231
v 0.320764 0.659187 0.447231
v -0.258475 0.723119 -0.447231
v 0.320764 0.659187 -0.447231
v -0.264726 0.666483 -0.447231
v 0.314513 0.602551 -0.447231
v -0.249067 0.904835 0.447231
v 0.242816 0.850545 0.447231
v -0.242816 0.961471 0.447231
v 0.249067 0.907181 0.447231
v -0.242816 0.961471 -0.447231
v 0.249067 0.907181 -0.447231
v -0.249067 0.904835 -0.447231
v 0.242816 0.850545 -0.447231
v -0.500000 -0.002384 0.500000
v 0.363628 -0.002384 0.500000
v -0.484332 1.158862 0.500000
v -0.484332 1.158862 -0.500000
v -0.500000 -0.002384 -0.500000
v 0.363628 -0.002384 -0.500000
v 0.275795 0.950440 0.500000
v -0.311979 1.158862 0.500000
v 0.438633 0.497666 0.500000
v 0.438633 0.497666 -0.500000
v -0.311979 1.158862 -0.500000
v 0.275795 0.950440 -0.500000
v -0.276125 -0.002384 0.500000
v -0.276125 -0.002384 -0.500000
v -0.282730 0.505627 0.500000
v -0.500000 0.505627 0.500000
v -0.500000 0.505627 -0.500000
v -0.282730 0.505627 -0.500000
v -0.500000 0.368710 0.500000
v -0.500000 0.368710 -0.500000
v -0.280950 0.368710 -0.500000
v 0.500000 0.372777 -0.500000
v 0.500000 0.372777 0.500000
v -0.280950 0.368710 0.500000
v 0.438633 0.385248 -0.500000
v -0.281245 0.391420 -0.500000
v -0.500000 0.391420 -0.500000
v -0.500000 0.391420 0.500000
v -0.281245 0.391420 0.500000
v 0.438633 0.385248 0.500000
v -0.500000 0.273701 0.500000
v -0.500000 0.273701 -0.500000
v -0.279714 0.273701 -0.500000
v 0.500000 0.259492 -0.500000
v 0.500000 0.259492 0.500000
v -0.279714 0.273701 0.500000
v -0.500000 0.251052 0.500000
v -0.500000 0.251052 -0.500000
v -0.279420 0.251052 -0.500000
v 0.363628 0.247080 -0.500000
v 0.363628 0.247080 0.500000
v -0.279420 0.251052 0.500000
v -0.484332 1.158862 0.445092
v -0.500000 0.505627 0.445092
v -0.500000 0.391420 0.445092
v -0.500000 0.368710 0.445092
v -0.500000 0.273701 0.445092
v -0.500000 0.251052 0.445092
v -0.500000 -0.002384 0.445092
v -0.276125 -0.002384 0.445092
v 0.363628 -0.002384 0.445092
v 0.363628 0.247080 0.445092
v 0.500000 0.259492 0.445092
v 0.500000 0.372777 0.445092
v 0.438633 0.385248 0.445092
v 0.438633 0.497666 0.445092
v 0.275795 0.950440 0.445092
v -0.311979 1.158862 0.445092
v -0.500000 -0.002384 -0.445113
v -0.500000 0.251052 -0.445113
v -0.500000 0.273701 -0.445113
v -0.500000 0.368710 -0.445113
v -0.500000 0.391420 -0.445113
v -0.500000 0.505627 -0.445113
v -0.484332 1.158862 -0.445113
v -0.311979 1.158862 -0.445113
v 0.275795 0.950440 -0.445113
v 0.438633 0.497666 -0.445113
v 0.438633 0.385248 -0.445113
v 0.500000 0.372777 -0.445113
v 0.500000 0.259492 -0.445113
v 0.363628 0.247080 -0.445113
v 0.363628 -0.002384 -0.445113
v -0.276125 -0.002384 -0.445113
v -0.326429 0.540732 0.445092
v -0.326429 0.540732 -0.445113
v 0.243750 0.424855 0.445092
v 0.243750 0.424855 -0.445113
v -0.484332 1.200458 0.500000
v -0.311979 1.200458 0.500000
v -0.311979 1.200458 0.445092
v -0.484332 1.200458 0.445092
v -0.484332 1.200458 -0.445113
v -0.311979 1.200458 -0.445113
v -0.311979 1.200458 -0.500000
v -0.484332 1.200458 -0.500000
v -0.174319 1.126109 0.500000
v -0.174319 1.126109 0.445092
v -0.161135 1.168409 0.445092
v -0.161135 1.168409 0.500000
v -0.174319 1.126109 -0.445113
v -0.174319 1.126109 -0.500000
v -0.161135 1.168409 -0.500000
v -0.161135 1.168409 -0.445113
v -0.198898 0.514814 0.445092
v -0.198898 0.514814 -0.445113
v -0.121383 0.503847 -0.500000
v -0.120230 0.390039 -0.500000
v -0.106275 0.369620 -0.500000
v -0.105317 0.270523 -0.500000
v -0.135590 0.250164 -0.500000
v -0.133032 -0.002384 -0.500000
v -0.133032 -0.002384 -0.445113
v -0.133032 -0.002384 0.445092
v -0.133032 -0.002384 0.500000
v -0.135590 0.250163 0.500000
v -0.105317 0.270523 0.500000
v -0.106275 0.369620 0.500000
v -0.120230 0.390039 0.500000
v -0.121383 0.503847 0.500000
vt 0.375000 0.000000
vt 0.625000 0.000000
vt 0.375000 0.250000
vt 0.625000 0.250000
vt 0.375000 0.500000
vt 0.625000 0.500000
vt 0.375000 0.750000
vt 0.625000 0.750000
vt 0.375000 1.000000
vt 0.625000 1.000000
vt 0.875000 0.000000
vt 0.875000 0.250000
vt 0.125000 0.000000
vt 0.125000 0.250000
vt 0.375000 0.000000
vt 0.625000 0.000000
vt 0.625000 0.250000
vt 0.375000 0.250000
vt 0.625000 0.500000
vt 0.375000 0.500000
vt 0.625000 0.750000
vt 0.375000 0.750000
vt 0.625000 1.000000
vt 0.375000 1.000000
vt 0.875000 0.000000
vt 0.875000 0.250000
vt 0.125000 0.000000
vt 0.125000 0.250000
vt 0.375000 0.250000
vt 0.500013 0.250000
vt 0.500013 0.263727
vt 0.375000 0.263727
vt 0.503263 1.000000
vt 0.503263 0.986273
vt 0.530491 0.986273
vt 0.530491 1.000000
vt 0.625000 0.000000
vt 0.638727 0.000000
vt 0.638727 0.062366
vt 0.625000 0.062366
vt 0.361273 0.063359
vt 0.361273 0.000000
vt 0.375000 0.000000
vt 0.375000 0.063359
vt 0.500013 0.250000
vt 0.528331 0.251672
vt 0.534185 0.283967
vt 0.500013 0.263727
vt 0.625000 0.250000
vt 0.625000 0.125013
vt 0.638727 0.125013
vt 0.631863 0.256863
vt 0.503263 0.000000
vt 0.502439 0.063359
vt 0.375000 0.686641
vt 0.502439 0.686641
vt 0.503263 0.750000
vt 0.375000 0.750000
vt 0.375000 0.986273
vt 0.375000 1.000000
vt 0.529210 0.126558
vt 0.501611 0.127003
vt 0.529852 0.686863
vt 0.530491 0.750000
vt 0.375000 0.127003
vt 0.375000 0.250000
vt 0.361273 0.250000
vt 0.361273 0.127003
vt 0.500013 0.500000
vt 0.501611 0.622997
vt 0.375000 0.622997
vt 0.375000 0.500000
vt 0.524115 0.503404
vt 0.529210 0.623442
vt 0.530491 0.000000
vt 0.529852 0.063137
vt 0.361273 0.098451
vt 0.375000 0.098451
vt 0.501983 0.651549
vt 0.375000 0.651549
vt 0.529498 0.651894
vt 0.625000 0.096908
vt 0.319363 0.048454
vt 0.529498 0.098106
vt 0.501983 0.098451
vt 0.529555 0.657552
vt 0.502056 0.657227
vt 0.375000 0.657227
vt 0.361273 0.092773
vt 0.375000 0.092773
vt 0.502056 0.092773
vt 0.529555 0.092448
vt 0.625000 0.091320
vt 0.638727 0.091320
vt 0.361273 0.069021
vt 0.375000 0.069021
vt 0.502365 0.680979
vt 0.375000 0.680979
vt 0.529795 0.681221
vt 0.625000 0.067940
vt 0.638727 0.067940
vt 0.529795 0.068779
vt 0.502365 0.069021
vt 0.125000 0.127003
vt 0.138722 0.127003
vt 0.138722 0.250000
vt 0.125000 0.250000
vt 0.125000 0.098451
vt 0.138722 0.098451
vt 0.125000 0.092773
vt 0.138722 0.092773
vt 0.125000 0.069021
vt 0.138722 0.069021
vt 0.125000 0.063359
vt 0.138722 0.063359
vt 0.125000 0.000000
vt 0.138722 0.000000
vt 0.503263 0.763722
vt 0.375000 0.763722
vt 0.530491 0.763722
vt 0.861278 0.062366
vt 0.861278 0.000000
vt 0.875000 0.000000
vt 0.875000 0.062366
vt 0.861278 0.067940
vt 0.875000 0.067940
vt 0.861278 0.091320
vt 0.875000 0.091320
vt 0.930639 0.048454
vt 0.875000 0.096908
vt 0.861278 0.125013
vt 0.875000 0.125013
vt 0.743139 0.368139
vt 0.875000 0.250000
vt 0.500013 0.486278
vt 0.564835 0.474978
vt 0.375000 0.486278
vt 0.500013 0.486278
vt 0.500013 0.500000
vt 0.375000 0.500000
vt 0.000000 0.833306
vt 1.000000 0.833306
vt 1.000000 1.000000
vt 0.000000 1.000000
vt 1.000000 0.254729
vt 0.000000 0.254729
vt 0.500013 0.250075
vt 0.500013 0.263726
vt 0.500013 0.263727
vt 0.500013 0.250000
vt 0.375000 0.263727
vt 0.500013 0.486254
vt 0.500013 0.499925
vt 0.500013 0.500000
vt 0.500013 0.486278
vt 0.375000 0.486278
vt 0.625000 0.500000
vt 0.625000 0.624987
vt 0.625000 0.653092
vt 0.625000 0.658680
vt 0.625000 0.682060
vt 0.625000 0.687634
vt 0.625000 0.750000
vt 0.625000 0.763722
vt 0.625000 0.986273
vt 0.625000 1.000000
vn 0.000000 0.000000 1.000000
vn 0.000000 0.000000 1.000000
vn 0.000000 0.000000 1.000000
vn 0.000000 0.000000 1.000000
vn 0.109707 0.993964 0.000000
vn 0.109707 0.993964 0.000000
vn 0.109707 0.993964 0.000000
vn 0.109707 0.993964 0.000000
vn 0.000000 0.000000 -1.000000
vn 0.000000 0.000000 -1.000000
vn 0.000000 0.000000 -1.000000
vn 0.000000 0.000000 -1.000000
vn -0.109706 -0.993964 0.000000
vn -0.109706 -0.993964 0.000000
vn -0.109706 -0.993964 0.000000
vn -0.109706 -0.993964 0.000000
vn 0.993964 -0.109706 0.000000
vn 0.993964 -0.109706 0.000000
vn 0.993964 -0.109706 0.000000
vn 0.993964 -0.109706 0.000000
vn -0.993964 0.109706 0.000000
vn -0.993964 0.109706 0.000000
vn -0.993964 0.109706 0.000000
vn -0.993964 0.109706 0.000000
vn 0.000000 0.000000 1.000000
vn 0.000000 0.000000 1.000000
vn 0.000000 0.000000 1.000000
vn 0.000000 0.000000 1.000000
vn 0.109707 0.993964 0.000000
vn 0.109707 0.993964 0.000000
vn 0.109707 0.993964 0.000000
vn 0.109707 0.993964 0.000000
vn 0.000000 0.000000 -1.000000
vn 0.000000 0.000000 -1.000000
vn 0.000000 0.000000 -1.000000
vn 0.000000 0.000000 -1.000000
vn -0.109707 -0.993964 0.000000
vn -0.109707 -0.993964 0.000000
vn -0.109707 -0.993964 0.000000
vn -0.109707 -0.993964 0.000000
vn 0.993964 -0.109707 0.000000
vn 0.993964 -0.109707 0.000000
vn 0.993964 -0.109707 0.000000
vn 0.993964 -0.109707 0.000000
vn -0.993964 0.109707 0.000000
vn -0.993964 0.109707 0.000000
vn -0.993964 0.109707 0.000000
vn -0.993964 0.109707 0.000000
vn 0.000000 1.000000 0.000000
vn 0.098677 0.995120 0.000000
vn 0.098677 0.995120 0.000000
vn 0.000000 1.000000 0.000000
vn 0.000000 -1.000000 0.000000
vn 0.000000 -1.000000 -0.000000
vn 0.000000 -1.000000 0.000000
vn 0.000000 -1.000000 0.000000
vn 1.000000 0.000000 0.000000
vn 1.000000 0.000000 -0.000000
vn 0.886945 -0.461875 -0.000000
vn 0.886945 -0.461875 0.000000
vn -1.000000 -0.000000 0.000000
vn -1.000000 -0.000000 0.000000
vn -1.000000 0.000000 0.000000
vn -1.000000 0.000000 0.000000
vn 0.231461 0.972844 0.000000
vn 0.231461 0.972844 0.000000
vn 0.231461 0.972844 0.000000
vn 0.231461 0.972844 0.000000
vn 0.940994 0.338424 0.000000
vn 0.960913 0.276850 0.000000
vn 0.960913 0.276850 0.000000
vn 0.940994 0.338424 0.000000
vn 0.000000 0.000000 1.000000
vn 0.000000 0.000000 1.000000
vn 0.000000 0.000000 1.000000
vn 0.000000 0.000000 1.000000
vn 0.000000 0.000000 -1.000000
vn 0.000000 0.000000 -1.000000
vn 0.000000 0.000000 -1.000000
vn 0.000000 0.000000 -1.000000
vn 0.000000 -1.000000 0.000000
vn 0.000000 -1.000000 0.000000
vn 0.000000 0.000000 1.000000
vn 0.000000 0.000000 1.000000
vn 0.000000 0.000000 1.000000
vn 0.000000 0.000000 1.000000
vn 0.000000 0.000000 -1.000000
vn 0.000000 0.000000 -1.000000
vn 0.000000 0.000000 1.000000
vn 0.000000 0.000000 1.000000
vn -0.999746 0.022543 0.000000
vn -0.999792 0.020411 0.000000
vn -0.999792 0.020411 0.000000
vn -0.999746 0.022543 0.000000
vn 0.000000 0.000000 -1.000000
vn 0.000000 0.000000 -1.000000
vn 0.000000 0.000000 -1.000000
vn 0.000000 0.000000 -1.000000
vn -0.000000 0.000000 -1.000000
vn -0.000000 0.000000 -1.000000
vn 0.000000 0.000000 1.000000
vn 0.000000 0.000000 1.000000
vn -1.000000 -0.000000 0.000000
vn -1.000000 0.000000 0.000000
vn 0.000000 0.000000 -1.000000
vn 0.000000 0.000000 -1.000000
vn 0.000000 0.000000 -1.000000
vn 0.897505 0.441005 0.000000
vn 0.224051 0.974577 0.000000
vn 0.000000 0.000000 1.000000
vn 0.000000 0.000000 1.000000
vn 0.000000 0.000000 1.000000
vn 0.000000 0.000000 -1.000000
vn 0.000000 0.000000 -1.000000
vn 0.000000 0.000000 -1.000000
vn -1.000000 0.000000 0.000000
vn -1.000000 0.000000 0.000000
vn 0.000000 0.000000 1.000000
vn 0.000000 0.000000 1.000000
vn 0.000000 0.000000 1.000000
vn 0.898706 0.438552 0.000000
vn 0.898705 0.438553 0.000000
vn -1.000000 0.000000 0.000000
vn -1.000000 0.000000 0.000000
vn 0.000000 0.000000 -1.000000
vn 0.000000 0.000000 -1.000000
vn 0.000000 0.000000 -1.000000
vn 0.677742 -0.735300 0.000000
vn 0.677742 -0.735300 -0.000000
vn 0.000000 0.000000 1.000000
vn 0.000000 0.000000 1.000000
vn 0.000000 0.000000 1.000000
vn -0.999792 0.020411 0.000000
vn -0.999792 0.020411 0.000000
vn -0.999746 0.022543 0.000000
vn -0.999746 0.022543 0.000000
vn -1.000000 0.000000 0.000000
vn -1.000000 -0.000000 0.000000
vn -1.000000 0.000000 0.000000
vn -1.000000 0.000000 0.000000
vn -1.000000 0.000000 0.000000
vn -1.000000 0.000000 0.000000
vn -1.000000 0.000000 0.000000
vn -1.000000 -0.000000 0.000000
vn -1.000000 0.000000 0.000000
vn -1.000000 -0.000000 0.000000
vn 0.000000 -1.000000 0.000000
vn 0.000000 -1.000000 0.000000
vn 0.000000 -1.000000 0.000000
vn 0.000000 -1.000000 0.000000
vn 0.000000 -1.000000 -0.000000
vn 0.000000 -1.000000 0.000000
vn 0.886945 -0.461875 -0.000000
vn 1.000000 0.000000 0.000000
vn 1.000000 0.000000 0.000001
vn 0.886945 -0.461875 0.000000
vn 0.677742 -0.735300 -0.000000
vn 0.677742 -0.735300 0.000000
vn 0.898706 0.438552 0.000000
vn 0.898706 0.438553 0.000000
vn 0.224042 0.974580 0.000000
vn 0.897504 0.441006 0.000000
vn 0.960913 0.276850 0.000000
vn 0.960913 0.276850 0.000000
vn 0.940994 0.338424 0.000000
vn 0.940994 0.338424 0.000000
vn 0.231462 0.972844 0.000000
vn 0.231462 0.972844 0.000000
vn 0.231462 0.972844 0.000000
vn 0.231462 0.972844 0.000000
vn 0.000000 1.000000 0.000000
vn 0.098677 0.995120 0.000000
vn 0.098677 0.995120 0.000000
vn 0.000000 1.000000 0.000000
vn 0.199159 0.979967 0.000000
vn 0.199159 0.979967 0.000000
vn 0.199159 0.979967 0.000000
vn 0.199159 0.979967 0.000000
vn 0.199159 0.979967 0.000000
vn 0.199159 0.979967 0.000000
vn 0.000000 0.000000 1.000000
vn 0.000000 0.000000 1.000000
vn 0.000000 0.000000 1.000000
vn 0.000000 0.000000 1.000000
vn 0.000000 0.000000 1.000000
vn 0.000000 0.000000 1.000000
vn 0.000000 0.000000 1.000000
vn 0.000000 0.000000 1.000000
vn 0.000000 0.000000 -1.000000
vn 0.000000 0.000000 -1.000000
vn 0.000000 0.000000 -1.000000
vn 0.000000 0.000000 -1.000000
vn -0.000001 -0.000000 -1.000000
vn -0.000001 -0.000000 -1.000000
vn -0.000001 -0.000000 -1.000000
vn -0.000001 -0.000000 -1.000000
vn 0.999727 -0.023372 0.000000
vn 0.999727 -0.023372 0.000000
vn 0.999727 -0.023372 0.000000
vn 0.999727 -0.023372 0.000000
vn 0.000000 0.000000 1.000000
vn 0.000000 0.000000 1.000000
vn 0.954697 -0.297579 -0.000000
vn 0.954697 -0.297579 0.000000
vn 0.954697 -0.297579 0.000000
vn 0.954697 -0.297579 -0.000000
vn -1.000000 0.000000 0.000000
vn -1.000000 0.000000 0.000000
vn 0.954697 -0.297579 0.000000
vn 0.954697 -0.297579 -0.000000
vn 0.954697 -0.297579 -0.000000
vn 0.954697 -0.297579 0.000000
vn 0.000000 0.000000 -1.000000
vn 0.000000 0.000000 -1.000000
vn -1.000000 0.000000 0.000000
vn -1.000000 0.000000 0.000000
vn -0.231461 -0.972844 0.000000
vn -0.231461 -0.972844 0.000000
vn -0.231461 -0.972844 0.000000
vn -0.231461 -0.972844 0.000000
vn 0.207823 0.978167 0.000000
vn 0.207823 0.978167 0.000000
vn 0.000000 0.000000 1.000000
vn 0.000000 0.000000 1.000000
vn -0.231462 -0.972844 0.000000
vn -0.231462 -0.972844 0.000000
vn -0.231462 -0.972844 0.000000
vn -0.231462 -0.972844 0.000000
vn 0.000000 0.000000 -1.000000
vn 0.000000 0.000000 -1.000000
vn 0.207823 0.978167 0.000000
vn 0.207823 0.978167 0.000000
vn -0.231462 -0.972844 0.000000
vn -0.231462 -0.972844 0.000000
vn -0.231462 -0.972844 0.000000
vn -0.231462 -0.972844 0.000000
vn 0.363569 0.931567 0.000000
vn 0.363569 0.931567 0.000000
vn 0.363569 0.931567 0.000000
vn 0.363569 0.931567 0.000000
vn 0.000000 0.000000 -1.000000
vn 0.000000 0.000000 -1.000000
vn -0.000000 0.000000 1.000000
vn -0.000000 0.000000 1.000000
vn 0.363569 0.931567 0.000000
vn 0.363569 0.931567 0.000000
vn 0.363569 0.931567 0.000000
vn 0.363569 0.931567 0.000000
vn -0.000000 0.000000 -1.000000
vn -0.000000 0.000000 -1.000000
vn 0.000000 0.000000 -1.000000
vn 0.000000 0.000000 -1.000000
vn 0.000000 0.000000 -1.000000
vn 0.000000 0.000000 -1.000000
vn 0.000000 0.000000 -1.000000
vn 0.000000 -1.000000 -0.000000
vn 0.000000 -1.000000 -0.000000
vn 0.000000 -1.000000 0.000000
vn 0.000000 -1.000000 0.000000
vn 0.000000 0.000000 1.000000
vn 0.000000 0.000000 1.000000
vn 0.000000 0.000000 1.000000
vn 0.000000 0.000000 1.000000
vn 0.000000 0.000000 1.000000
vn 0.000000 0.000000 1.000000
vn 0.000000 0.000000 1.000000
s off
g showcase
usemtl initialShadingGroup
f 1/1/1 2/2/2 4/4/3 3/3/4
f 3/3/5 4/4/6 6/6/7 5/5/8
f 5/5/9 6/6/10 8/8/11 7/7/12
f 7/7/13 8/8/14 2/10/15 1/9/16
f 2/2/17 8/11/18 6/12/19 4/4/20
f 7/13/21 1/1/22 3/3/23 5/14/24
f 9/15/25 10/16/26 12/17/27 11/18/28
f 11/18/29 12/17/30 14/19/31 13/20/32
f 13/20/33 14/19/34 16/21/35 15/22/36
f 15/22/37 16/21/38 10/23/39 9/24/40
f 10/16/41 16/25/42 14/26/43 12/17/44
f 15/27/45 9/15/46 11/18/47 13/28/48
s 1
f 95/29/49 96/30/50 97/31/51 98/32/52
s 2
f 29/33/53 66/34/54 120/35/55 121/36/56
s 3
f 18/37/57 67/38/58 68/39/59 57/40/60
s 4
f 64/41/61 65/42/62 17/43/63 53/44/64
s off
f 24/45/65 103/46/66 104/47/67 74/48/68
s 3
f 23/49/69 25/50/70 72/51/71 73/52/72
s 6
f 29/53/73 58/54/74 53/44/75 17/43/76
s 7
f 54/55/77 55/56/78 30/57/79 21/58/80
s 2
f 65/59/81 66/34/54 29/33/53 17/60/82
s 6
f 126/61/83 103/46/84 24/45/85 31/62/86
s 7
f 55/56/78 117/63/87 118/64/88 30/57/79
s 6
f 32/65/89 31/62/86 24/45/85 19/66/90
s 4
f 59/67/91 60/68/92 32/65/93 19/66/94
s 7
f 27/69/95 34/70/96 33/71/97 20/72/98
f 108/73/99 113/74/100 34/70/96 27/69/95
s 6
f 121/75/101 122/76/102 58/54/74 29/53/73
s 4
f 60/68/92 61/77/103 44/78/104 32/65/93
s 7
f 33/71/97 34/70/96 42/79/105 43/80/106
f 113/74/100 114/81/107 42/79/105 34/70/96
s 3
f 46/82/108 71/83/109 72/51/71 25/50/70
s 6
f 125/84/110 126/61/83 31/62/86 45/85/111
f 44/78/112 45/85/111 31/62/86 32/65/89
s 7
f 42/79/105 114/81/107 115/86/113 37/87/114
f 43/80/106 42/79/105 37/87/114 36/88/115
s 4
f 61/77/103 62/89/116 35/90/117 44/78/104
s 6
f 35/90/118 40/91/119 45/85/111 44/78/112
f 124/92/120 125/84/110 45/85/111 40/91/119
s 3
f 39/93/121 70/94/122 71/83/109 46/82/108
s 4
f 62/89/116 63/95/123 47/96/124 35/90/117
s 7
f 36/88/115 37/87/114 49/97/125 48/98/126
f 37/87/114 115/86/113 116/99/127 49/97/125
s 3
f 51/100/128 69/101/129 70/94/122 39/93/121
s 6
f 123/102/130 124/92/120 40/91/119 52/103/131
f 47/96/132 52/103/131 40/91/119 35/90/118
s 4
f 63/95/123 64/41/61 53/44/64 47/96/124
s 7
f 48/98/126 49/97/125 55/56/78 54/55/77
f 49/97/125 116/99/127 117/63/87 55/56/78
s 3
f 57/40/60 68/39/59 69/101/129 51/100/128
s 6
f 122/76/102 123/102/130 52/103/131 58/54/74
f 53/44/75 58/54/74 52/103/131 47/96/132
s 4
f 33/104/133 80/105/134 81/106/135 20/107/136
f 43/108/137 79/109/138 80/105/134 33/104/133
f 36/110/139 78/111/140 79/109/138 43/108/137
f 48/112/141 77/113/142 78/111/140 36/110/139
f 54/114/143 76/115/144 77/113/142 48/112/141
f 21/116/145 75/117/146 76/115/144 54/114/143
s 2
f 21/58/147 30/57/148 90/118/149 75/119/150
f 118/64/151 119/120/152 90/118/149 30/57/148
s 3
f 88/121/153 89/122/154 22/123/155 56/124/156
f 87/125/157 88/121/153 56/124/156 50/126/158
f 86/127/159 87/125/157 50/126/158 38/128/160
f 85/129/161 86/127/159 38/128/160 41/130/162
f 84/131/163 85/129/161 41/130/162 26/132/164
f 83/133/165 84/131/163 26/132/164 28/134/166
s off
f 82/135/167 107/136/168 108/73/169 27/69/170
s 1
f 99/137/171 100/138/172 101/139/173 102/140/174
s 4
f 76/115/144 75/117/146 65/42/62 64/41/61
f 77/113/142 76/115/144 64/41/61 63/95/123
f 78/111/140 77/113/142 63/95/123 62/89/116
f 79/109/138 78/111/140 62/89/116 61/77/103
f 80/105/134 79/109/138 61/77/103 60/68/92
f 81/106/135 80/105/134 60/68/92 59/67/91
s 1
f 98/32/52 97/31/51 100/138/172 99/137/171
s 3
f 71/83/109 70/94/122 86/127/159 85/129/161
f 70/94/122 69/101/129 87/125/157 86/127/159
f 69/101/129 68/39/59 88/121/153 87/125/157
f 68/39/59 67/38/58 89/122/154 88/121/153
s 2
f 119/120/152 120/35/55 66/34/54 90/118/149
f 75/119/150 90/118/149 66/34/54 65/59/81
s 3
f 111/141/175 112/142/176 92/143/177 91/144/178
f 71/83/109 85/129/161 94/145/179 93/146/180
s 14
f 112/142/181 107/136/182 82/135/183 92/143/184
s off
f 84/131/185 83/133/186 94/145/187 85/129/188
s 15
f 74/48/189 104/47/190 111/141/191 91/144/192
s off
f 73/52/193 72/51/194 71/83/195 93/146/196
f 82/135/197 74/48/198 91/144/199 92/143/200
s 6
f 19/66/90 24/45/85 96/30/201 95/29/202
s 16
f 103/147/203 104/148/204 105/149/205 106/150/206
s 4
f 59/151/91 19/66/94 95/29/207 98/32/208
s 16
f 107/152/209 108/153/210 109/154/211 110/155/212
s 7
f 27/69/95 20/72/98 102/140/213 101/139/214
s 4
f 20/72/136 81/156/135 99/137/215 102/140/216
s 16
f 104/148/204 107/152/209 110/155/212 105/149/205
s 4
f 81/156/135 59/151/91 98/32/208 99/137/215
s off
f 24/45/217 74/48/218 104/148/219 103/147/220
s 1
f 97/31/51 96/30/50 106/150/221 105/149/222
s 6
f 96/30/201 24/45/85 103/147/223 106/150/224
s off
f 82/135/225 27/69/226 108/153/227 107/152/228
s 7
f 27/69/95 101/139/214 109/154/229 108/153/230
s 1
f 101/139/173 100/138/172 110/155/231 109/154/232
s off
f 74/48/233 82/135/234 107/152/235 104/148/236
s 1
f 100/138/172 97/31/51 105/149/222 110/155/231
s off
f 104/47/237 103/46/238 23/49/239 73/52/240
s 15
f 111/141/191 104/47/190 73/52/241 93/146/242
s 3
f 93/146/180 94/145/179 112/142/176 111/141/175
s 14
f 83/133/243 107/136/182 112/142/181 94/145/244
s off
f 108/73/245 107/136/246 83/133/247 28/157/248
s 7
f 26/158/249 113/74/100 108/73/99 28/157/250
f 26/158/249 41/159/251 114/81/107 113/74/100
f 115/86/113 114/81/107 41/159/251 38/160/252
f 116/99/127 115/86/113 38/160/252 50/161/253
f 117/63/87 116/99/127 50/161/253 56/162/254
f 118/64/88 117/63/87 56/162/254 22/163/255
s 2
f 89/164/256 119/120/152 118/64/151 22/163/257
f 67/165/258 120/35/55 119/120/152 89/164/256
f 121/36/56 120/35/55 67/165/258 18/166/259
s 6
f 57/40/260 122/76/102 121/75/101 18/37/261
f 51/100/262 123/102/130 122/76/102 57/40/260
f 39/93/263 124/92/120 123/102/130 51/100/262
f 46/82/264 125/84/110 124/92/120 39/93/263
f 25/50/265 126/61/83 125/84/110 46/82/264
f 23/49/266 103/46/84 126/61/83 25/50/265
