# This file uses centimeters as units for non-parametric coordinates.

mtllib DECO_UNI_CASHREGISTER_MODEL.mtl
g default
v -0.333297 0.000881 0.333297
v 0.333297 0.000881 0.333297
v -0.333297 0.151220 0.333297
v 0.333297 0.151220 0.333297
v -0.333297 0.151220 -0.333297
v 0.333297 0.151220 -0.333297
v -0.333297 0.000881 -0.333297
v 0.333297 0.000881 -0.333297
v -0.265297 0.151220 0.265297
v 0.265297 0.151220 0.265297
v 0.265297 0.151220 -0.265297
v -0.265297 0.151220 -0.265297
v -0.265297 0.208610 0.265297
v 0.265297 0.208610 0.265297
v 0.265297 0.208610 -0.265297
v -0.265297 0.208610 -0.265297
v -0.314297 0.019881 0.333297
v 0.314297 0.019881 0.333297
v 0.314297 0.132220 0.333297
v -0.314297 0.132220 0.333297
v -0.307297 0.026881 0.333297
v 0.307297 0.026881 0.333297
v 0.307297 0.125220 0.333297
v -0.307297 0.125220 0.333297
v -0.314297 0.019881 0.294069
v 0.314297 0.019881 0.294069
v 0.307297 0.026881 0.294069
v -0.307297 0.026881 0.294069
v 0.314297 0.132220 0.294069
v 0.307297 0.125220 0.294069
v -0.314297 0.132220 0.294069
v -0.307297 0.125220 0.294069
v -0.263297 0.070881 0.333297
v 0.263297 0.070881 0.333297
v 0.263297 0.081220 0.333297
v -0.263297 0.081220 0.333297
v -0.263297 0.070881 0.233369
v 0.263297 0.070881 0.233369
v 0.263297 0.081220 0.233369
v -0.263297 0.081220 0.233369
v 0.009685 0.371953 -0.107834
v 0.251584 0.371953 -0.107834
v 0.009685 0.321114 0.004578
v 0.251584 0.321114 0.004578
v 0.009685 0.339453 0.019153
v 0.009685 0.368710 0.009634
v 0.251584 0.339453 0.019153
v 0.251584 0.368710 0.009634
v 0.009685 0.416328 -0.095392
v 0.009685 0.411092 -0.107449
v 0.251584 0.416328 -0.095392
v 0.251584 0.411092 -0.107449
v 0.155732 0.347061 -0.210396
v 0.146786 0.347061 -0.216896
v 0.135728 0.347061 -0.216896
v 0.126781 0.347061 -0.210396
v 0.123364 0.347061 -0.199879
v 0.126781 0.347061 -0.189362
v 0.135728 0.347061 -0.182863
v 0.146786 0.347061 -0.182863
v 0.155732 0.347061 -0.189362
v 0.159149 0.347061 -0.199879
v 0.155732 0.463550 -0.210396
v 0.146786 0.463550 -0.216896
v 0.135728 0.463550 -0.216896
v 0.126781 0.463550 -0.210396
v 0.123364 0.463550 -0.199879
v 0.126781 0.463550 -0.189362
v 0.135728 0.463550 -0.182863
v 0.146786 0.463550 -0.182863
v 0.155732 0.463550 -0.189362
v 0.159149 0.463550 -0.199879
v 0.141257 0.347061 -0.199879
v 0.141257 0.463550 -0.199879
v 0.013928 0.406764 -0.159996
v 0.253474 0.406311 -0.193651
v 0.013986 0.520970 -0.162191
v 0.253531 0.520517 -0.195846
v 0.007795 0.520473 -0.206242
v 0.247341 0.520020 -0.239897
v 0.007738 0.406267 -0.204047
v 0.247283 0.405814 -0.237702
v -0.284466 0.167198 0.284466
v 0.284466 0.167198 0.284466
v -0.284466 0.167198 -0.284466
v 0.284466 0.167198 -0.284466
v -0.284466 0.310418 0.210041
v -0.284466 0.228251 0.284466
v 0.284466 0.310790 0.210041
v 0.284466 0.228251 0.284466
v -0.284466 0.365437 -0.284466
v 0.284466 0.365437 -0.284466
v 0.284466 0.385050 -0.176941
v -0.284466 0.167198 -0.171822
v 0.284466 0.167198 -0.171822
v -0.284466 0.167198 0.186725
v 0.284466 0.167198 0.186725
v -0.028948 0.167198 0.284466
v -0.028948 0.228251 0.284466
v -0.028948 0.310604 0.210041
v -0.020505 0.385050 -0.176941
v -0.028948 0.365437 -0.284466
v -0.028948 0.167198 -0.284466
v -0.028948 0.167198 -0.171822
v -0.028948 0.167198 0.186725
v -0.284466 0.453983 -0.220067
v -0.284466 0.465047 -0.174259
v -0.284466 0.474981 -0.103882
v -0.037391 0.453983 -0.220067
v -0.037391 0.474981 -0.103882
v -0.033170 0.465276 -0.174597
vt 0.375000 0.000000
vt 0.625000 0.000000
vt 0.625000 0.250000
vt 0.375000 0.250000
vt 0.625000 0.500000
vt 0.375000 0.500000
vt 0.625000 0.750000
vt 0.375000 0.750000
vt 0.625000 1.000000
vt 0.375000 1.000000
vt 0.875000 0.000000
vt 0.875000 0.250000
vt 0.125000 0.000000
vt 0.125000 0.250000
vt 0.375000 0.250000
vt 0.625000 0.250000
vt 0.625000 0.500000
vt 0.375000 0.500000
vt 0.375000 0.250000
vt 0.625000 0.250000
vt 0.625000 0.500000
vt 0.375000 0.500000
vt 0.375000 0.000000
vt 0.625000 0.000000
vt 0.625000 0.250000
vt 0.375000 0.250000
vt 0.375000 0.000000
vt 0.625000 0.000000
vt 0.625000 0.250000
vt 0.375000 0.250000
vt 0.375000 0.000000
vt 0.625000 0.000000
vt 0.625000 0.000000
vt 0.375000 0.000000
vt 0.625000 0.250000
vt 0.625000 0.250000
vt 0.375000 0.250000
vt 0.375000 0.250000
vt 0.375000 0.000000
vt 0.625000 0.000000
vt 0.625000 0.250000
vt 0.375000 0.250000
vt 0.375000 0.000000
vt 0.625000 0.000000
vt 0.625000 0.250000
vt 0.375000 0.250000
vt 0.375000 0.042694
vt 0.625000 0.042694
vt 0.625000 0.228820
vt 0.375000 0.228820
vt 0.375000 0.303495
vt 0.625000 0.303495
vt 0.625000 0.500000
vt 0.375000 0.500000
vt 0.625000 0.750000
vt 0.375000 0.750000
vt 0.625000 0.875012
vt 0.375000 0.875012
vt 0.125000 0.000001
vt 0.250013 0.000000
vt 0.321505 0.250000
vt 0.125000 0.250000
vt 0.749987 0.000000
vt 0.875000 0.000000
vt 0.875000 0.250000
vt 0.678495 0.250000
vt 0.375000 0.312500
vt 0.400000 0.312500
vt 0.400000 0.687500
vt 0.375000 0.687500
vt 0.425000 0.312500
vt 0.425000 0.687500
vt 0.450000 0.312500
vt 0.450000 0.687500
vt 0.475000 0.312500
vt 0.475000 0.687500
vt 0.500000 0.312500
vt 0.500000 0.687500
vt 0.525000 0.312500
vt 0.525000 0.687500
vt 0.550000 0.312500
vt 0.550000 0.687500
vt 0.575000 0.312500
vt 0.575000 0.687500
vt 0.600000 0.312500
vt 0.600000 0.687500
vt 0.625000 0.312500
vt 0.625000 0.687500
vt 0.548284 0.007647
vt 0.626409 0.064409
vt 0.500000 0.156250
vt 0.451716 0.007647
vt 0.373591 0.064409
vt 0.343750 0.156250
vt 0.373591 0.248091
vt 0.451716 0.304853
vt 0.548284 0.304853
vt 0.626409 0.248091
vt 0.656250 0.156250
vt 0.626409 0.935591
vt 0.548284 0.992353
vt 0.500000 0.843750
vt 0.451716 0.992353
vt 0.373591 0.935591
vt 0.343750 0.843750
vt 0.373591 0.751909
vt 0.451716 0.695147
vt 0.548284 0.695147
vt 0.626409 0.751909
vt 0.656250 0.843750
vt 0.375000 0.000000
vt 0.625000 0.000000
vt 0.625000 0.250000
vt 0.375000 0.250000
vt 0.625000 0.500000
vt 0.375000 0.500000
vt 0.625000 0.750000
vt 0.375000 0.750000
vt 0.625000 1.000000
vt 0.375000 1.000000
vt 0.875000 0.000000
vt 0.875000 0.250000
vt 0.125000 0.000000
vt 0.125000 0.250000
vt 0.375000 0.000000
vt 0.487280 0.000000
vt 0.487280 0.125013
vt 0.375000 0.125013
vt 0.375000 0.282704
vt 0.487280 0.282704
vt 0.483570 0.420648
vt 0.375000 0.420648
vt 0.375000 0.576973
vt 0.487280 0.576973
vt 0.487280 0.750000
vt 0.375000 0.750000
vt 0.375000 0.957050
vt 0.487280 0.957050
vt 0.487280 1.000000
vt 0.375000 1.000000
vt 0.827751 0.250000
vt 0.825502 0.000000
vt 0.875000 0.000000
vt 0.875000 0.173027
vt 0.125000 0.000000
vt 0.174498 0.000000
vt 0.172546 0.216909
vt 0.153298 0.219128
vt 0.125000 0.173027
vt 0.375000 0.502574
vt 0.483570 0.502574
vt 0.487280 0.799498
vt 0.375000 0.799498
vt 0.625000 0.000000
vt 0.667950 0.000000
vt 0.657704 0.250000
vt 0.625000 0.125013
vt 0.342296 0.250000
vt 0.332050 0.000000
vt 0.625000 0.282704
vt 0.490990 0.452751
vt 0.625000 0.452751
vt 0.625000 0.576973
vt 0.625000 0.750000
vt 0.625000 0.799498
vt 0.625000 0.957050
vt 0.625000 1.000000
vt 0.485424 0.460805
vt 0.204352 0.250000
vt 0.375000 0.457338
vn 0.000000 0.000000 1.000000
vn 0.000000 0.000000 1.000000
vn 0.000000 0.000000 1.000000
vn 0.000000 0.000000 1.000000
vn 0.000000 1.000000 0.000000
vn 0.000000 1.000000 0.000000
vn 0.000000 1.000000 0.000000
vn 0.000000 1.000000 0.000000
vn 0.000000 0.000000 -1.000000
vn 0.000000 0.000000 -1.000000
vn 0.000000 0.000000 -1.000000
vn 0.000000 0.000000 -1.000000
vn 0.000000 -1.000000 0.000000
vn 0.000000 -1.000000 0.000000
vn 0.000000 -1.000000 0.000000
vn 0.000000 -1.000000 0.000000
vn 1.000000 0.000000 0.000000
vn 1.000000 0.000000 0.000000
vn 1.000000 0.000000 0.000000
vn 1.000000 0.000000 0.000000
vn -1.000000 0.000000 0.000000
vn -1.000000 0.000000 0.000000
vn -1.000000 0.000000 0.000000
vn -1.000000 0.000000 0.000000
vn 0.000000 1.000000 0.000000
vn 0.000000 1.000000 0.000000
vn 0.000000 1.000000 0.000000
vn 0.000000 1.000000 0.000000
vn 0.000000 1.000000 0.000000
vn 0.000000 1.000000 0.000000
vn 0.000000 1.000000 0.000000
vn 0.000000 1.000000 0.000000
vn 0.000000 0.000000 1.000000
vn 0.000000 0.000000 1.000000
vn 0.000000 0.000000 1.000000
vn 0.000000 0.000000 1.000000
vn 1.000000 0.000000 0.000000
vn 1.000000 0.000000 0.000000
vn 1.000000 0.000000 0.000000
vn 1.000000 0.000000 0.000000
vn 0.000000 0.000000 -1.000000
vn 0.000000 0.000000 -1.000000
vn 0.000000 0.000000 -1.000000
vn 0.000000 0.000000 -1.000000
vn -1.000000 0.000000 0.000000
vn -1.000000 0.000000 0.000000
vn -1.000000 0.000000 0.000000
vn -1.000000 0.000000 0.000000
vn -0.000000 0.000000 1.000000
vn 0.000000 0.000000 1.000000
vn 0.000000 0.000000 1.000000
vn -0.000000 0.000000 1.000000
vn 0.000000 0.000000 1.000000
vn 0.000000 0.000000 1.000000
vn -0.000000 0.000000 1.000000
vn -0.000000 0.000000 1.000000
vn 0.000000 0.000000 1.000000
vn -0.000000 0.000000 1.000000
vn -0.000000 0.000000 1.000000
vn 0.000000 0.000000 1.000000
vn -0.000000 0.000000 1.000000
vn -0.000000 0.000000 1.000000
vn 0.000000 0.000000 1.000000
vn 0.000000 0.000000 1.000000
vn 0.000000 1.000000 -0.000000
vn 0.000000 1.000000 -0.000000
vn 0.000000 1.000000 -0.000000
vn 0.000000 1.000000 -0.000000
vn 0.000000 -1.000000 -0.000000
vn 0.000000 -1.000000 -0.000000
vn 0.000000 -1.000000 -0.000000
vn 0.000000 -1.000000 -0.000000
vn -1.000000 0.000000 -0.000002
vn -1.000000 0.000000 -0.000002
vn -1.000000 0.000000 -0.000002
vn -1.000000 0.000000 -0.000002
vn 1.000000 0.000000 0.000002
vn 1.000000 0.000000 0.000002
vn 1.000000 0.000000 0.000002
vn 1.000000 0.000000 0.000002
vn 0.000000 -1.000000 0.000000
vn 0.000000 -1.000000 0.000000
vn 0.000000 -1.000000 0.000000
vn 0.000000 -1.000000 0.000000
vn 0.000000 1.000000 -0.000000
vn 0.000000 1.000000 -0.000000
vn 0.000000 1.000000 -0.000000
vn 0.000000 1.000000 -0.000000
vn 1.000000 0.000000 -0.000002
vn 1.000000 0.000000 -0.000002
vn 1.000000 0.000000 -0.000002
vn 1.000000 0.000000 -0.000002
vn -1.000000 0.000000 0.000002
vn -1.000000 0.000000 0.000002
vn -1.000000 0.000000 0.000002
vn -1.000000 0.000000 0.000002
vn -0.000000 0.000000 1.000000
vn 0.000000 0.000000 1.000000
vn 0.000000 0.000000 1.000000
vn -0.000000 0.000000 1.000000
vn 0.000000 0.000000 1.000000
vn 0.000000 0.000000 1.000000
vn -0.000000 0.000000 1.000000
vn -0.000000 0.000000 1.000000
vn 0.000000 1.000000 0.000000
vn 0.000000 1.000000 0.000000
vn 0.000000 1.000000 0.000000
vn 0.000000 1.000000 0.000000
vn -1.000000 0.000000 0.000000
vn -1.000000 0.000000 0.000000
vn -1.000000 0.000000 0.000000
vn -1.000000 0.000000 0.000000
vn 0.000000 -1.000000 0.000000
vn 0.000000 -1.000000 0.000000
vn 0.000000 -1.000000 0.000000
vn 0.000000 -1.000000 0.000000
vn 1.000000 0.000000 0.000000
vn 1.000000 0.000000 0.000000
vn 1.000000 0.000000 0.000000
vn 1.000000 0.000000 0.000000
vn 0.000000 0.910763 0.412929
vn 0.000000 0.910763 0.412929
vn 0.000000 0.910763 0.412929
vn 0.000000 0.910763 0.412929
vn 0.000000 0.009842 -0.999952
vn 0.000000 0.009842 -0.999952
vn 0.000000 0.009842 -0.999952
vn 0.000000 0.009842 -0.999952
vn 0.000000 -0.911152 -0.412070
vn 0.000000 -0.911152 -0.412070
vn 0.000000 -0.911152 -0.412070
vn 0.000000 -0.911152 -0.412070
vn 0.000000 -0.622200 0.782858
vn 0.000000 -0.622200 0.782858
vn 0.000000 -0.622200 0.782858
vn 0.000000 -0.622200 0.782858
vn -1.000000 0.000000 0.000000
vn -1.000000 0.000000 0.000000
vn -1.000000 0.000000 0.000000
vn -1.000000 0.000000 0.000000
vn -1.000000 0.000000 0.000000
vn -1.000000 0.000000 0.000000
vn 1.000000 -0.000000 0.000000
vn 1.000000 -0.000000 0.000000
vn 1.000000 -0.000000 0.000000
vn 1.000000 -0.000000 0.000000
vn 1.000000 -0.000000 0.000000
vn 1.000000 -0.000000 0.000000
vn 0.000000 0.309387 0.950936
vn 0.000000 0.309387 0.950936
vn 0.000000 0.309387 0.950936
vn 0.000000 0.309387 0.950936
vn 0.000000 0.917239 -0.398338
vn 0.000000 0.917239 -0.398338
vn 0.000000 0.917239 -0.398338
vn 0.000000 0.917239 -0.398338
vn 0.587786 0.000000 -0.809017
vn 0.587786 0.000000 -0.809017
vn 0.587786 0.000000 -0.809017
vn 0.587786 0.000000 -0.809017
vn 0.000000 0.000000 -1.000000
vn 0.000000 0.000000 -1.000000
vn 0.000000 0.000000 -1.000000
vn 0.000000 0.000000 -1.000000
vn -0.587786 0.000000 -0.809017
vn -0.587786 0.000000 -0.809017
vn -0.587786 0.000000 -0.809017
vn -0.587786 0.000000 -0.809017
vn -0.951056 0.000000 -0.309018
vn -0.951056 0.000000 -0.309018
vn -0.951056 0.000000 -0.309018
vn -0.951056 0.000000 -0.309018
vn -0.951056 0.000000 0.309017
vn -0.951056 0.000000 0.309017
vn -0.951056 0.000000 0.309017
vn -0.951056 0.000000 0.309017
vn -0.587787 0.000000 0.809016
vn -0.587787 0.000000 0.809016
vn -0.587787 0.000000 0.809016
vn -0.587787 0.000000 0.809016
vn 0.000000 0.000000 1.000000
vn 0.000000 0.000000 1.000000
vn 0.000000 0.000000 1.000000
vn 0.000000 0.000000 1.000000
vn 0.587787 0.000000 0.809016
vn 0.587787 0.000000 0.809016
vn 0.587787 0.000000 0.809016
vn 0.587787 0.000000 0.809016
vn 0.951056 0.000000 0.309017
vn 0.951056 0.000000 0.309017
vn 0.951056 0.000000 0.309017
vn 0.951056 0.000000 0.309017
vn 0.951056 0.000000 -0.309018
vn 0.951056 0.000000 -0.309018
vn 0.951056 0.000000 -0.309018
vn 0.951056 0.000000 -0.309018
vn 0.000000 -1.000000 -0.000001
vn 0.000000 -1.000000 -0.000001
vn 0.000000 -1.000000 0.000000
vn 0.000000 -1.000000 0.000000
vn 0.000000 -1.000000 0.000000
vn 0.000000 -1.000000 0.000000
vn 0.000000 -1.000000 0.000001
vn 0.000000 -1.000000 0.000001
vn 0.000000 -1.000000 0.000000
vn 0.000000 -1.000000 0.000000
vn 0.000000 -1.000000 0.000000
vn 0.000000 1.000000 0.000002
vn 0.000000 1.000000 0.000002
vn 0.000000 1.000000 0.000000
vn 0.000000 1.000000 0.000001
vn 0.000000 1.000000 0.000001
vn 0.000000 1.000000 0.000000
vn 0.000000 1.000000 -0.000002
vn 0.000000 1.000000 -0.000002
vn 0.000000 1.000000 -0.000001
vn 0.000000 1.000000 -0.000001
vn 0.000000 1.000000 0.000000
vn 0.139139 0.018959 0.990091
vn 0.139139 0.018959 0.990091
vn 0.139139 0.018959 0.990091
vn 0.139139 0.018959 0.990091
vn 0.000298 0.999936 -0.011323
vn 0.000298 0.999936 -0.011323
vn 0.000298 0.999936 -0.011323
vn 0.000298 0.999936 -0.011323
vn -0.139139 -0.018959 -0.990091
vn -0.139139 -0.018959 -0.990091
vn -0.139139 -0.018959 -0.990091
vn -0.139139 -0.018959 -0.990091
vn -0.000298 -0.999936 0.011321
vn -0.000298 -0.999936 0.011321
vn -0.000298 -0.999936 0.011321
vn -0.000298 -0.999936 0.011321
vn 0.990269 -0.003175 -0.139129
vn 0.990269 -0.003175 -0.139129
vn 0.990269 -0.003175 -0.139129
vn 0.990269 -0.003175 -0.139129
vn -0.990269 0.003175 0.139129
vn -0.990269 0.003175 0.139129
vn -0.990269 0.003175 0.139129
vn -0.990269 0.003175 0.139129
vn 0.000000 0.000000 1.000000
vn 0.000000 0.000000 1.000000
vn 0.000000 0.000000 1.000000
vn 0.000000 0.000000 1.000000
vn -0.000328 0.885790 0.464087
vn 0.020616 0.951144 0.308058
vn 0.357239 0.831566 0.425298
vn -0.000328 0.885790 0.464087
vn 0.000000 0.000000 -1.000000
vn 0.000000 0.000000 -1.000000
vn 0.000000 0.000000 -1.000000
vn 0.000000 0.000000 -1.000000
vn 0.000000 -1.000000 0.000000
vn 0.000000 -1.000000 0.000000
vn 0.000000 -1.000000 0.000000
vn 0.000000 -1.000000 0.000000
vn 1.000000 0.000000 0.000000
vn 1.000000 0.000000 0.000000
vn 1.000000 0.000000 0.000000
vn 1.000000 0.000000 0.000000
vn -1.000000 0.000000 0.000000
vn -1.000000 0.000000 0.000000
vn -1.000000 0.000000 0.000000
vn -1.000000 0.000000 0.000000
vn -1.000000 0.000000 0.000000
vn -0.000244 0.670914 0.741535
vn -0.000244 0.670914 0.741535
vn -0.000219 0.670455 0.741950
vn -0.000219 0.670455 0.741951
vn 0.000000 0.588182 -0.808729
vn 0.000000 0.588182 -0.808729
vn 0.286414 0.579548 -0.762949
vn 0.053505 0.866015 -0.497148
vn 0.000000 -1.000000 0.000000
vn 0.000000 -1.000000 0.000000
vn 0.000000 -1.000000 0.000000
vn 0.000000 -1.000000 0.000000
vn 1.000000 0.000000 0.000000
vn 1.000000 0.000000 0.000000
vn 1.000000 0.000000 0.000000
vn 1.000000 0.000000 0.000000
vn -1.000000 0.000000 0.000000
vn -1.000000 0.000000 0.000000
vn -1.000000 0.000000 0.000000
vn -1.000000 0.000000 0.000000
vn 0.000000 0.000000 1.000000
vn 0.000000 0.000000 1.000000
vn -0.000199 0.670080 0.742289
vn -0.000199 0.670080 0.742289
vn 0.193884 0.962671 0.188875
vn -0.000296 0.982038 0.188682
vn -0.000296 0.982038 0.188682
vn 0.178799 0.965081 -0.191442
vn 0.000000 0.983767 -0.179449
vn 0.000000 0.983767 -0.179449
vn 0.000000 0.000000 -1.000000
vn 0.000000 0.000000 -1.000000
vn 0.000000 -1.000000 0.000000
vn 0.000000 -1.000000 0.000000
vn 0.000000 -1.000000 0.000000
vn 0.000000 -1.000000 0.000000
vn 0.979074 0.167917 -0.114965
vn -1.000000 0.000000 0.000000
vn 0.988045 0.146483 0.048059
vn -0.000608 0.971296 -0.237874
vn -0.000573 0.984065 -0.177809
vn -0.000572 0.984141 -0.177387
vn -0.000608 0.971296 -0.237874
vn -0.000548 0.990450 -0.137873
vn -0.000548 0.990450 -0.137873
s off
g Cashregisterblock
usemtl initialShadingGroup
f 37/43/1 38/44/2 39/45/3 40/46/4
f 13/19/5 14/20/6 15/21/7 16/22/8
f 5/6/9 6/5/10 8/7/11 7/8/12
f 7/8/13 8/7/14 2/9/15 1/10/16
f 2/2/17 8/11/18 6/12/19 4/3/20
f 7/13/21 1/1/22 3/4/23 5/14/24
s 1
f 3/4/25 4/3/26 10/16/27 9/15/28
f 4/3/26 6/5/29 11/17/30 10/16/27
f 6/5/29 5/6/31 12/18/32 11/17/30
f 5/6/31 3/4/25 9/15/28 12/18/32
s off
f 9/15/33 10/16/34 14/20/35 13/19/36
f 10/16/37 11/17/38 15/21/39 14/20/40
f 11/17/41 12/18/42 16/22/43 15/21/44
f 12/18/45 9/15/46 13/19/47 16/22/48
s 2
f 1/1/49 2/2/50 18/24/51 17/23/52
f 2/2/50 4/3/53 19/25/54 18/24/51
f 4/3/53 3/4/55 20/26/56 19/25/54
f 3/4/55 1/1/49 17/23/52 20/26/56
s 3
f 25/31/57 26/32/58 27/33/59 28/34/60
f 26/32/58 29/35/61 30/36/62 27/33/59
f 29/35/61 31/37/63 32/38/64 30/36/62
f 31/37/63 25/31/57 28/34/60 32/38/64
s off
f 17/23/65 18/24/66 26/32/67 25/31/68
f 22/28/69 21/27/70 28/34/71 27/33/72
f 18/24/73 19/25/74 29/35/75 26/32/76
f 23/29/77 22/28/78 27/33/79 30/36/80
f 19/25/81 20/26/82 31/37/83 29/35/84
f 24/30/85 23/29/86 30/36/87 32/38/88
f 20/26/89 17/23/90 25/31/91 31/37/92
f 21/27/93 24/30/94 32/38/95 28/34/96
s 4
f 21/27/97 22/28/98 34/40/99 33/39/100
f 22/28/98 23/29/101 35/41/102 34/40/99
f 23/29/101 24/30/103 36/42/104 35/41/102
f 24/30/103 21/27/97 33/39/100 36/42/104
s off
f 33/39/105 34/40/106 38/44/107 37/43/108
f 34/40/109 35/41/110 39/45/111 38/44/112
f 35/41/113 36/42/114 40/46/115 39/45/116
f 36/42/117 33/39/118 37/43/119 40/46/120
f 46/47/121 48/48/122 51/49/123 49/50/124
f 50/51/125 52/52/126 42/53/127 41/54/128
f 41/54/129 42/53/130 44/55/131 43/56/132
f 43/56/133 44/55/134 47/57/135 45/58/136
f 43/59/137 45/60/138 46/47/139 49/50/140 50/61/141 41/62/142
f 48/48/143 47/63/144 44/64/145 42/65/146 52/66/147 51/49/148
f 46/47/149 45/60/150 47/63/151 48/48/152
f 50/51/153 49/50/154 51/49/155 52/52/156
f 53/67/157 54/68/158 64/69/159 63/70/160
f 54/68/161 55/71/162 65/72/163 64/69/164
f 55/71/165 56/73/166 66/74/167 65/72/168
f 56/73/169 57/75/170 67/76/171 66/74/172
f 57/75/173 58/77/174 68/78/175 67/76/176
f 58/77/177 59/79/178 69/80/179 68/78/180
f 59/79/181 60/81/182 70/82/183 69/80/184
f 60/81/185 61/83/186 71/84/187 70/82/188
f 61/83/189 62/85/190 72/86/191 71/84/192
f 62/85/193 53/87/194 63/88/195 72/86/196
s 5
f 54/89/197 53/90/198 73/91/199
f 55/92/200 54/89/197 73/91/199
f 56/93/201 55/92/200 73/91/199
f 57/94/202 56/93/201 73/91/199
f 58/95/203 57/94/202 73/91/199
f 59/96/204 58/95/203 73/91/199
f 60/97/205 59/96/204 73/91/199
f 61/98/206 60/97/205 73/91/199
f 62/99/207 61/98/206 73/91/199
f 53/90/198 62/99/207 73/91/199
s 6
f 63/100/208 64/101/209 74/102/210
f 64/101/209 65/103/211 74/102/210
f 65/103/211 66/104/212 74/102/210
f 66/104/212 67/105/213 74/102/210
f 67/105/213 68/106/214 74/102/210
f 68/106/214 69/107/215 74/102/210
f 69/107/215 70/108/216 74/102/210
f 70/108/216 71/109/217 74/102/210
f 71/109/217 72/110/218 74/102/210
f 72/110/218 63/100/208 74/102/210
s off
f 75/111/219 76/112/220 78/113/221 77/114/222
f 77/114/223 78/113/224 80/115/225 79/116/226
f 79/116/227 80/115/228 82/117/229 81/118/230
f 81/118/231 82/117/232 76/119/233 75/120/234
f 76/112/235 82/121/236 80/122/237 78/113/238
f 81/123/239 75/111/240 77/114/241 79/124/242
s 7
f 83/125/243 98/126/244 99/127/245 88/128/246
s 8
f 87/129/247 100/130/248 110/131/249 108/132/250
s 9
f 91/133/251 102/134/252 103/135/253 85/136/254
s 10
f 96/137/255 105/138/256 98/139/257 83/140/258
s 11
f 93/141/259 95/142/260 86/143/261 92/144/262
s 12
f 85/145/263 94/146/264 107/147/265 106/148/266 91/149/267
s 13
f 87/129/268 88/128/269 99/127/270 100/130/271
s 14
f 91/133/272 106/150/273 109/151/274 102/134/275
s 10
f 85/136/276 103/135/277 104/152/278 94/153/279
s 11
f 84/154/280 97/155/281 89/156/282 90/157/283
s 10
f 94/153/279 104/152/278 105/138/256 96/137/255
s 11
f 89/156/282 97/155/281 95/142/260 93/141/259
s 12
f 87/158/284 96/159/285 83/125/286 88/128/287
s 7
f 99/127/245 98/126/244 84/154/288 90/157/289
s 13
f 100/130/271 99/127/270 90/157/290 89/160/291
s 8
f 101/161/292 100/130/248 89/160/293 93/162/294
s 14
f 102/134/275 101/161/295 93/162/296 92/163/297
s 9
f 103/135/253 102/134/252 92/163/298 86/164/299
s 10
f 104/152/278 103/135/277 86/164/300 95/165/301
f 105/138/256 104/152/278 95/165/301 97/166/302
f 98/139/257 105/138/256 97/166/302 84/167/303
s 14
f 102/134/275 109/151/274 111/168/304 101/161/295
s 12
f 108/169/305 107/147/265 94/146/264 96/159/285 87/158/284
s 8
f 111/168/306 110/131/249 100/130/248 101/161/292
s 16
f 106/150/307 107/170/308 111/168/309 109/151/310
f 111/168/309 107/170/308 108/132/311 110/131/312
