# This file uses centimeters as units for non-parametric coordinates.

mtllib DECO_RU_WORKSTATIONCORNER_MODEL.mtl
g default
v -0.537774 0.997616 -0.500000
v -0.537774 -0.002384 -0.500000
v -0.537774 0.915531 -0.500000
v -0.537774 0.899186 -0.500000
v -0.517521 0.915531 -0.479746
v -0.517521 0.899186 -0.479746
v -0.537774 0.997616 0.000000
v -0.537774 0.915531 0.000000
v -0.517521 0.915531 0.000000
v -0.517521 0.899186 0.000000
v -0.537774 0.899186 0.000000
v -0.537774 -0.002384 0.000000
v 0.000000 -0.002384 -0.500000
v 0.000000 0.899186 -0.500000
v 0.000000 0.899186 -0.479746
v 0.000000 0.915531 -0.479746
v 0.000000 0.915531 -0.500000
v 0.000000 0.997616 -0.500000
v 0.000000 0.997616 0.000000
v 0.000000 -0.002384 0.500000
v 0.000000 0.899186 0.500000
v 0.000000 0.899186 0.479746
v 0.000000 0.915531 0.479746
v 0.000000 0.915531 0.500000
v 0.000000 0.997616 0.500000
v 0.446611 0.997616 0.500000
v 0.446611 -0.002384 0.500000
v 0.446611 0.915531 0.500000
v 0.446611 0.899186 0.500000
v 0.426358 0.915531 0.479746
v 0.426358 0.899186 0.479746
v 0.446611 0.997616 -0.000000
v 0.446611 0.915531 -0.000000
v 0.426358 0.915531 -0.000000
v 0.426358 0.899186 -0.000000
v 0.446611 0.899186 -0.000000
v 0.446611 -0.002384 -0.000000
v 0.446611 0.997616 -0.500000
v 0.446611 -0.002384 -0.500000
v 0.446611 0.915531 -0.500000
v 0.446611 0.899186 -0.500000
v 0.426358 0.915531 -0.479746
v 0.426358 0.899186 -0.479746
v -0.537774 -0.001466 0.398650
v -0.537774 0.898617 0.398650
v -0.517521 0.899186 0.382501
v -0.517521 0.915531 0.382501
v -0.537774 0.915262 0.398650
v -0.537774 0.997616 0.398650
v 0.000000 0.997616 0.398650
v 0.446611 0.997616 0.398649
v 0.446611 0.915531 0.398649
v 0.426358 0.915531 0.382501
v 0.426358 0.899186 0.382501
v 0.446611 0.899186 0.398649
v 0.446611 -0.002384 0.398649
v -0.438684 -0.002384 -0.500000
v -0.438684 0.899186 -0.500000
v -0.422482 0.899186 -0.479746
v -0.422482 0.915531 -0.479746
v -0.438684 0.915531 -0.500000
v -0.438684 0.997616 -0.500000
v -0.438684 0.997616 0.000000
v -0.438684 0.997616 0.398650
v -0.438684 0.997616 0.500000
v -0.438684 0.915262 0.500000
v -0.422482 0.915531 0.479746
v -0.422482 0.899186 0.479746
v -0.438684 0.898617 0.500000
v -0.438684 -0.001466 0.500000
v -0.438684 -0.000549 0.398650
v -0.438684 0.915069 0.398650
v -0.438684 0.898138 0.398650
v -0.428712 0.915069 0.388677
v -0.428712 0.898138 0.388677
vt 0.500000 0.500000
vt 0.500000 0.524607
vt 0.500000 0.750000
vt 0.875000 0.000000
vt 0.875000 0.225392
vt 0.500000 0.520521
vt 0.875000 0.229479
vt 0.875000 0.250000
vt 0.500000 0.520521
vt 0.500000 0.524607
vt 0.875000 0.225392
vt 0.875000 0.229479
vt 0.625000 0.500000
vt 0.625000 0.520521
vt 0.625000 0.520521
vt 0.625000 0.524607
vt 0.625000 0.524607
vt 0.625000 0.750000
vt 0.750000 0.000000
vt 0.750000 0.225392
vt 0.750000 0.225392
vt 0.750000 0.229479
vt 0.750000 0.229479
vt 0.625000 0.375000
vt 0.750000 0.250000
vt 0.500000 0.375000
vt 0.500000 0.520521
vt 0.500000 0.500000
vt 0.500000 0.520521
vt 0.500000 0.524607
vt 0.500000 0.524607
vt 0.500000 0.750000
vt 0.750000 0.225392
vt 0.750000 0.000000
vt 0.750000 0.225392
vt 0.750000 0.229479
vt 0.750000 0.229479
vt 0.750000 0.250000
vt 0.500000 0.375000
vt 0.625000 0.375000
vt 0.500000 0.520521
vt 0.500000 0.500000
vt 0.625000 0.500000
vt 0.625000 0.520521
vt 0.500000 0.520521
vt 0.625000 0.520521
vt 0.500000 0.524607
vt 0.625000 0.524607
vt 0.625000 0.524607
vt 0.500000 0.524607
vt 0.500000 0.750000
vt 0.625000 0.750000
vt 0.750000 0.225392
vt 0.750000 0.000000
vt 0.875000 0.000000
vt 0.875000 0.225392
vt 0.750000 0.225392
vt 0.875000 0.225392
vt 0.750000 0.229479
vt 0.875000 0.229479
vt 0.875000 0.229479
vt 0.750000 0.229479
vt 0.750000 0.250000
vt 0.875000 0.250000
vt 0.500000 0.375000
vt 0.625000 0.375000
vt 0.500000 0.520521
vt 0.625000 0.520521
vt 0.625000 0.500000
vt 0.500000 0.500000
vt 0.500000 0.520521
vt 0.625000 0.520521
vt 0.500000 0.524607
vt 0.625000 0.524607
vt 0.625000 0.524607
vt 0.500000 0.524607
vt 0.500000 0.750000
vt 0.625000 0.750000
vt 0.750000 0.225392
vt 0.875000 0.225392
vt 0.875000 0.000000
vt 0.750000 0.000000
vt 0.750000 0.225392
vt 0.875000 0.225392
vt 0.750000 0.229479
vt 0.875000 0.229479
vt 0.875000 0.229479
vt 0.750000 0.229479
vt 0.750000 0.250000
vt 0.875000 0.250000
vt 0.625000 0.375000
vt 0.500000 0.375000
vt 0.599662 0.750000
vt 0.599662 0.524607
vt 0.599007 0.524324
vt 0.598905 0.520761
vt 0.599662 0.520521
vt 0.599662 0.500000
vt 0.599662 0.375000
vt 0.599662 0.375000
vt 0.599662 0.500000
vt 0.599662 0.520521
vt 0.599662 0.520521
vt 0.599662 0.524607
vt 0.599662 0.524607
vt 0.599662 0.750000
vt 0.850000 0.000000
vt 0.850000 0.225392
vt 0.850000 0.225392
vt 0.850000 0.229479
vt 0.850000 0.229479
vt 0.625000 0.475000
vt 0.850000 0.250000
vt 0.500000 0.475000
vt 0.500000 0.475000
vt 0.599662 0.475000
vt 0.850000 0.250000
vt 0.625000 0.475000
vt 0.850000 0.229479
vt 0.849312 0.229239
vt 0.849405 0.225676
vt 0.850000 0.225392
vt 0.850000 0.000000
vt 0.000000 0.000000
vt 1.000000 0.000000
vt 1.000000 1.000000
vt 0.000000 1.000000
vt 0.000000 0.000000
vt 1.000000 0.000000
vt 1.000000 1.000000
vt 0.000000 1.000000
vt 1.000000 0.082700
vt 1.000000 0.082700
vt 0.000000 0.082700
vt 0.000000 0.082700
vt 1.000000 0.099661
vt 1.000000 0.099661
vt 0.000000 0.099661
vt 0.000000 0.099661
vt 0.000000 0.000000
vt 1.000000 0.000000
vt 0.812381 0.799398
vt 0.500000 1.000000
vt 0.000000 0.000000
vt 1.000000 0.000000
vt 0.183573 0.800902
vt 0.000000 0.000000
vt 1.000000 0.000000
vt 0.500000 1.000000
vt 0.187627 0.799382
vt 0.000000 0.000000
vt 1.000000 0.000000
vt 0.816420 0.800888
vn -1.000000 0.000000 0.000000
vn -1.000000 0.000000 0.000000
vn -1.000000 0.000000 0.000000
vn -1.000000 0.000000 0.000000
vn 0.002889 -0.999996 -0.000153
vn 0.002889 -0.999996 -0.000153
vn 0.000000 -1.000000 -0.000000
vn 0.000000 -1.000000 -0.000000
vn -1.000000 0.000000 0.000000
vn -1.000000 0.000000 0.000000
vn -1.000000 0.000000 0.000000
vn -1.000000 0.000000 0.000000
vn 0.000000 1.000000 -0.000001
vn -0.006111 0.999981 0.000323
vn -0.006111 0.999981 0.000323
vn 0.000000 1.000000 -0.000001
vn -1.000000 0.000000 0.000000
vn -1.000000 0.000000 0.000000
vn -1.000000 0.000000 0.000000
vn -1.000000 0.000000 0.000000
vn 0.000000 0.000000 -1.000000
vn 0.000000 0.000000 -1.000000
vn 0.000000 0.000000 -1.000000
vn 0.000000 0.000000 -1.000000
vn 0.000000 1.000000 0.000000
vn 0.000000 1.000000 0.000000
vn 0.000000 1.000000 -0.000001
vn 0.000000 1.000000 -0.000000
vn -0.000000 0.000000 -1.000000
vn -0.000000 0.000000 -1.000000
vn -0.000000 0.000000 -1.000000
vn -0.000000 0.000000 -1.000000
vn -0.000000 -1.000000 -0.000000
vn -0.000000 -1.000000 -0.000000
vn -0.000000 -1.000000 0.000000
vn -0.000000 -1.000000 0.000000
vn 0.000000 0.000000 -1.000000
vn 0.000000 0.000000 -1.000000
vn 0.000000 0.000000 -1.000000
vn 0.000000 0.000000 -1.000000
vn 0.000000 1.000000 0.000000
vn 0.000000 1.000000 0.000000
vn 0.000000 1.000000 0.000000
vn 0.000000 1.000000 0.000000
vn -1.000000 0.000000 0.000000
vn -1.000000 0.000000 0.000000
vn 0.006513 -0.999979 -0.000345
vn 0.006513 -0.999979 -0.000345
vn -1.000000 0.000000 0.000000
vn -1.000000 0.000000 0.000000
vn -0.013774 0.999905 0.000729
vn -0.013774 0.999905 0.000729
vn -1.000000 0.000000 0.000000
vn -1.000000 0.000000 0.000000
vn 0.000000 0.000000 1.000000
vn 0.000000 0.000000 1.000000
vn 0.000000 0.000000 1.000000
vn 0.000000 0.000000 1.000000
vn -0.000661 0.999905 0.013801
vn -0.000661 0.999905 0.013801
vn -0.000661 0.999905 0.013801
vn -0.000661 0.999905 0.013801
vn -0.000000 0.000000 1.000000
vn -0.000000 0.000000 1.000000
vn -0.000000 0.000000 1.000000
vn -0.000000 0.000000 1.000000
vn 0.000313 -0.999979 -0.006524
vn 0.000313 -0.999979 -0.006524
vn 0.000313 -0.999979 -0.006524
vn 0.000313 -0.999979 -0.006524
vn 0.000000 0.000000 1.000000
vn 0.000000 0.000000 1.000000
vn 0.000000 0.000000 1.000000
vn 0.000000 0.000000 1.000000
vn 0.000000 1.000000 0.000000
vn 0.000000 1.000000 0.000000
vn 1.000000 0.000000 0.000000
vn 1.000000 0.000000 0.000000
vn 1.000000 0.000000 0.000000
vn 1.000000 0.000000 0.000000
vn 0.000000 -1.000000 0.000000
vn 0.000000 -1.000000 0.000000
vn 0.000000 -1.000000 0.000000
vn 0.000000 -1.000000 0.000000
vn 1.000000 0.000000 0.000000
vn 1.000000 0.000000 0.000000
vn 1.000000 0.000000 0.000000
vn 1.000000 0.000000 0.000000
vn 0.000000 1.000000 0.000000
vn 0.000000 1.000000 0.000000
vn 0.000000 1.000000 0.000000
vn 0.000000 1.000000 0.000000
vn 1.000000 0.000000 0.000000
vn 1.000000 0.000000 0.000000
vn 1.000000 0.000000 0.000000
vn 1.000000 0.000000 0.000000
vn 0.000000 0.000000 1.000000
vn 0.000000 0.000000 1.000000
vn 0.000000 0.000000 1.000000
vn 0.000000 0.000000 1.000000
vn -0.000000 1.000000 0.000000
vn -0.000000 1.000000 0.000000
vn -0.000000 1.000000 0.000000
vn -0.000000 1.000000 0.000000
vn 0.000000 0.000000 1.000000
vn 0.000000 0.000000 1.000000
vn 0.000000 0.000000 1.000000
vn 0.000000 0.000000 1.000000
vn 0.000000 -1.000000 -0.000001
vn 0.000000 -1.000000 -0.000001
vn 0.000000 -1.000000 -0.000001
vn 0.000000 -1.000000 -0.000001
vn 0.000000 0.000000 1.000000
vn 0.000000 0.000000 1.000000
vn 0.000000 0.000000 1.000000
vn 0.000000 0.000000 1.000000
vn 0.000000 1.000000 0.000000
vn 0.000000 1.000000 0.000000
vn 0.000000 1.000000 0.000000
vn 0.000000 1.000000 0.000000
vn 1.000000 0.000000 0.000000
vn 1.000000 0.000000 0.000000
vn 0.000000 -1.000000 0.000000
vn 0.000000 -1.000000 0.000000
vn 1.000000 0.000000 0.000000
vn 1.000000 0.000000 0.000000
vn -0.000000 1.000000 0.000000
vn -0.000000 1.000000 0.000000
vn 1.000000 0.000000 0.000000
vn 1.000000 0.000000 0.000000
vn -0.000000 0.000000 -1.000000
vn -0.000000 0.000000 -1.000000
vn -0.000000 0.000000 -1.000000
vn -0.000000 0.000000 -1.000000
vn -0.000000 1.000000 0.000000
vn -0.000000 1.000000 0.000000
vn 0.000000 0.000000 -1.000000
vn 0.000000 0.000000 -1.000000
vn 0.000000 0.000000 -1.000000
vn 0.000000 0.000000 -1.000000
vn 0.000000 -1.000000 0.000000
vn 0.000000 -1.000000 0.000000
vn -0.000000 0.000000 -1.000000
vn -0.000000 0.000000 -1.000000
vn -0.000000 0.000000 -1.000000
vn -0.000000 0.000000 -1.000000
vn 0.000000 1.000000 0.000000
vn 0.000000 1.000000 0.000000
vn 0.000000 1.000000 0.000000
vn 0.000000 1.000000 0.000000
vn 0.000000 1.000000 0.000000
vn 0.000000 1.000000 0.000000
vn 1.000000 0.000000 0.000000
vn 1.000000 0.000000 0.000000
vn 1.000000 0.000000 0.000000
vn 1.000000 0.000000 0.000000
vn 1.000000 0.000000 0.000000
vn 1.000000 0.000000 0.000000
vn 0.000000 0.000000 -1.000000
vn 0.000000 0.000000 -1.000000
vn 0.000000 0.000000 -1.000000
vn 0.000000 0.000000 -1.000000
vn 0.000000 0.000000 -1.000000
vn 0.000000 0.000000 -1.000000
vn 0.000000 1.000000 0.000000
vn 0.000000 1.000000 0.000000
vn 0.000000 1.000000 0.000000
vn 0.000000 0.000000 1.000000
vn 0.000000 0.000000 1.000000
vn 0.000000 0.000000 1.000000
vn 0.000000 0.000000 1.000000
vn -1.000000 0.000000 -0.000001
vn -1.000000 0.000000 -0.000001
vn -1.000000 0.000000 -0.000001
vn -1.000000 0.000000 -0.000001
vn 0.000000 0.000000 1.000000
vn 0.000000 0.000000 1.000000
vn 0.000000 0.000000 1.000000
vn 0.000000 0.000000 1.000000
vn -1.000000 0.000000 -0.000001
vn -1.000000 0.000000 -0.000001
vn -1.000000 0.000000 -0.000001
vn -1.000000 0.000000 -0.000001
vn 0.005446 -0.999971 -0.005328
vn -0.003039 -0.999900 -0.013835
vn -0.003039 -0.999900 -0.013835
vn 0.005440 -0.999971 -0.005334
vn 0.013718 -0.999902 0.002967
vn 0.013718 -0.999902 0.002967
vn 0.007132 0.999523 0.030057
vn -0.011571 0.999869 0.011316
vn -0.011558 0.999869 0.011329
vn 0.007132 0.999523 0.030057
vn -0.029800 0.999532 -0.006965
vn -0.029800 0.999532 -0.006965
vn -0.069376 0.000000 0.997591
vn -0.069376 0.000000 0.997591
vn -0.069376 0.000000 0.997591
vn -0.069376 0.000000 0.997591
vn -0.997668 0.000000 0.068257
vn -0.997668 0.000000 0.068257
vn -0.997668 0.000000 0.068257
vn -0.997668 0.000000 0.068257
s 1
g cornerworkstationrusticblock
usemtl initialShadingGroup
f 8/6/1 7/1/2 1/13/3 3/14/4
s 2
f 9/9/5 8/6/6 3/14/7 5/15/8
s 3
f 10/10/9 9/9/10 5/15/11 6/16/12
s 4
f 4/17/13 11/2/14 10/10/15 6/16/16
s 5
f 12/3/17 11/2/18 4/17/19 2/18/20
s 6
f 14/20/21 13/19/22 57/107/23 58/108/24
s 4
f 15/21/25 14/20/26 58/108/27 59/109/28
s 7
f 16/22/29 15/21/30 59/109/31 60/110/32
s 2
f 60/110/33 61/111/34 17/23/35 16/22/36
s 8
f 18/25/37 17/23/38 61/111/39 62/113/40
s 9
f 62/112/41 63/115/42 19/26/43 18/24/44
s 1
f 8/27/1 48/97/45 49/98/46 7/28/2
s 2
f 9/29/5 47/96/47 48/97/48 8/27/6
s 3
f 10/30/9 46/95/49 47/96/50 9/29/10
s 4
f 45/94/51 46/95/52 10/30/15 11/31/14
s 5
f 12/32/17 44/93/53 45/94/54 11/31/18
s off
f 21/33/55 69/122/56 70/123/57 20/34/58
f 22/35/59 68/121/60 69/122/61 21/33/62
f 23/36/63 67/120/64 68/121/65 22/35/66
f 66/119/67 67/120/68 23/36/69 24/37/70
f 25/38/71 65/117/72 66/119/73 24/37/74
s 9
f 63/114/42 64/116/75 50/99/76 19/39/43
s 10
f 33/41/77 32/42/78 51/101/79 52/102/80
s 11
f 34/45/81 33/41/82 52/102/83 53/103/84
s 12
f 35/47/85 34/45/86 53/103/87 54/104/88
s 13
f 54/104/89 55/105/90 36/50/91 35/47/92
s 14
f 37/51/93 36/50/94 55/105/95 56/106/96
s off
f 21/53/97 20/54/98 27/55/99 29/56/100
s 13
f 22/57/101 21/53/102 29/56/103 31/58/104
s off
f 23/59/105 22/57/106 31/58/107 30/60/108
s 11
f 28/61/109 24/62/110 23/59/111 30/60/112
s off
f 25/63/113 24/62/114 28/61/115 26/64/116
s 15
f 32/42/117 19/65/118 50/100/119 51/101/120
s 10
f 33/67/77 40/68/121 38/69/122 32/70/78
s 11
f 34/71/81 42/72/123 40/68/124 33/67/82
s 12
f 35/73/85 43/74/125 42/72/126 34/71/86
s 13
f 41/75/127 43/74/128 35/73/92 36/76/91
s 14
f 37/77/93 39/78/129 41/75/130 36/76/94
s off
f 14/79/131 41/80/132 39/81/133 13/82/134
s 13
f 15/83/135 43/84/128 41/80/127 14/79/136
s off
f 16/85/137 42/86/138 43/84/139 15/83/140
s 11
f 40/87/124 42/86/123 16/85/141 17/88/142
s off
f 18/89/143 38/90/144 40/87/145 17/88/146
s 15
f 32/70/117 38/69/147 18/91/148 19/92/118
s 9
f 50/99/76 64/116/75 65/118/149 25/40/150
s 15
f 51/101/120 50/100/119 25/66/151 26/43/152
s 10
f 52/102/80 51/101/79 26/43/153 28/44/154
s 11
f 53/103/84 52/102/83 28/44/109 30/46/112
s 12
f 54/104/88 53/103/87 30/46/155 31/48/156
s 13
f 29/49/103 55/105/90 54/104/89 31/48/104
s 14
f 56/106/96 55/105/95 29/49/157 27/52/158
s 6
f 58/108/24 57/107/23 2/4/159 4/5/160
s 4
f 59/109/28 58/108/27 4/5/13 6/11/16
s 7
f 60/110/32 59/109/31 6/11/161 5/12/162
s 2
f 3/7/7 61/111/34 60/110/33 5/12/8
s 8
f 62/113/40 61/111/39 3/7/163 1/8/164
s 9
f 7/1/165 63/115/42 62/112/41 1/13/166
f 7/28/165 49/98/167 64/116/75 63/114/42
s off
f 64/124/168 49/125/169 48/132/170 72/134/171
f 65/128/172 64/129/173 72/133/174 66/135/175
f 73/138/176 45/136/177 44/126/178 71/127/179
f 69/139/180 73/137/181 71/130/182 70/131/183
s 16
f 72/140/184 48/141/185 47/142/186 74/143/187
f 66/144/188 72/145/184 74/143/187 67/146/189
s 17
f 45/147/190 73/148/191 75/149/192 46/150/193
f 73/151/191 69/152/194 68/153/195 75/149/192
s off
f 74/143/196 47/142/197 46/150/198 75/149/199
f 67/146/200 74/143/201 75/149/202 68/153/203
