# This file uses centimeters as units for non-parametric coordinates.

mtllib DECO_UNI_BREADOVEN_MODEL.mtl
g default
v -0.500000 0.000000 0.505000
v 0.218800 0.000000 0.505000
v -0.500000 1.208560 0.505000
v 0.218800 1.208560 0.505000
v -0.500000 1.208560 -0.495000
v 0.218800 1.208560 -0.495000
v -0.500000 0.000000 -0.495000
v 0.218800 0.000000 -0.495000
v -0.500000 1.208560 0.405000
v -0.500000 0.000000 0.405000
v 0.218800 0.000000 0.405000
v 0.218800 1.208560 0.405000
v -0.500000 0.000000 -0.405000
v -0.500000 1.208560 -0.405000
v 0.218800 1.208560 -0.405000
v 0.218800 0.000000 -0.405000
v -0.500000 0.454066 0.505000
v -0.500000 0.454066 0.405000
v -0.500000 0.454066 -0.405000
v -0.500000 0.454066 -0.495000
v 0.218800 0.410528 -0.495000
v 0.218800 0.410528 -0.405000
v 0.218800 0.410528 0.405000
v 0.218800 0.410528 0.505000
v -0.500000 0.866326 -0.495000
v -0.500000 0.866326 -0.405000
v -0.500000 0.866326 0.405000
v -0.500000 0.866326 0.505000
v 0.218800 0.866326 0.505000
v 0.218800 0.866326 0.405000
v 0.218800 0.866326 -0.405000
v 0.218800 0.866326 -0.495000
v -0.500000 0.561051 0.505000
v -0.500000 0.561051 0.405000
v -0.500000 0.561051 -0.405000
v -0.500000 0.561051 -0.495000
v 0.218800 0.561051 -0.495000
v 0.218800 0.561051 -0.405000
v 0.218800 0.561051 0.405000
v 0.218800 0.561051 0.505000
v -0.500000 0.717483 -0.495000
v -0.500000 0.717483 -0.405000
v -0.500000 0.717483 0.405000
v -0.500000 0.717483 0.505000
v 0.218800 0.717483 0.505000
v 0.218800 0.717483 0.405000
v 0.218800 0.717483 -0.405000
v 0.218800 0.717483 -0.495000
v 0.218800 0.886326 0.385000
v 0.218800 1.039454 0.385000
v 0.218800 0.886326 -0.385000
v 0.218800 1.039454 -0.385000
v 0.218800 0.846326 0.385000
v 0.218800 0.846326 -0.385000
v 0.218800 0.737483 0.385000
v 0.218800 0.737483 -0.385000
v 0.218800 0.697483 0.385000
v 0.218800 0.697483 -0.385000
v 0.218800 0.581051 0.385000
v 0.218800 0.581051 -0.385000
v 0.218800 0.541051 -0.385000
v 0.218800 0.541051 0.385000
v 0.218800 0.430528 0.385000
v 0.218800 0.430528 -0.385000
v -0.281484 0.886326 0.385000
v -0.281484 1.039454 0.385000
v -0.281484 0.886326 -0.385000
v -0.281484 1.039454 -0.385000
v -0.281484 0.541051 -0.385000
v -0.281484 0.541051 0.385000
v -0.281484 0.430528 0.385000
v -0.281484 0.430528 -0.385000
v -0.281484 0.846326 0.385000
v -0.281484 0.846326 -0.385000
v -0.281484 0.737483 0.385000
v -0.281484 0.737483 -0.385000
v -0.281484 0.697483 0.385000
v -0.281484 0.697483 -0.385000
v -0.281484 0.581051 0.385000
v -0.281484 0.581051 -0.385000
v 0.242513 1.056618 0.505000
v 0.392775 1.056618 0.505000
v 0.266924 1.203134 0.505000
v 0.417186 1.203134 0.505000
v 0.266924 1.203134 -0.495000
v 0.417186 1.203134 -0.495000
v 0.242513 1.056618 -0.495000
v 0.392775 1.056618 -0.495000
v 0.246363 1.088386 -0.463000
v 0.246363 1.088386 0.473000
v 0.263075 1.171366 0.473000
v 0.263075 1.171366 -0.463000
v 0.099766 1.088386 -0.463000
v 0.099766 1.088386 0.473000
v 0.116478 1.171366 0.473000
v 0.116478 1.171366 -0.463000
v 0.242513 0.331418 0.505000
v 0.306976 0.331418 0.505000
v 0.241189 0.171821 0.505000
v 0.306976 0.171821 0.505000
v 0.266924 0.171821 -0.495000
v 0.306976 0.171821 -0.495000
v 0.242513 0.331418 -0.495000
v 0.306976 0.331418 -0.495000
v 0.242513 0.392960 -0.495000
v 0.306976 0.392960 -0.495000
v 0.306976 0.392960 0.505000
v 0.242513 0.392960 0.505000
v 0.502776 0.290444 -0.495000
v 0.502776 0.290444 0.505000
v 0.502777 0.351986 0.505000
v 0.502777 0.351986 -0.495000
v 0.242341 0.331392 -0.468000
v 0.242687 0.331416 0.478000
v 0.239591 0.198726 0.477974
v 0.264627 0.198776 -0.467975
v 0.242513 0.365960 -0.468000
v 0.242513 0.365960 0.478000
v 0.101976 0.331392 -0.468000
v 0.102322 0.331416 0.478000
v 0.099226 0.198726 0.477974
v 0.124262 0.198776 -0.467975
v 0.102148 0.365960 -0.468000
v 0.102148 0.365960 0.478000
vt 0.375000 0.000000
vt 0.625000 0.000000
vt 0.375000 0.250000
vt 0.625000 0.250000
vt 0.375000 0.500000
vt 0.625000 0.500000
vt 0.375000 0.750000
vt 0.625000 0.750000
vt 0.375000 1.000000
vt 0.625000 1.000000
vt 0.875000 0.000000
vt 0.875000 0.250000
vt 0.125000 0.000000
vt 0.125000 0.250000
vt 0.350000 0.250000
vt 0.375000 0.275000
vt 0.350000 0.000000
vt 0.375000 0.975000
vt 0.625000 0.975000
vt 0.650000 0.000000
vt 0.625000 0.275000
vt 0.650000 0.250000
vt 0.147500 0.000000
vt 0.375000 0.772500
vt 0.147500 0.250000
vt 0.375000 0.477500
vt 0.625000 0.477500
vt 0.852500 0.250000
vt 0.625000 0.772500
vt 0.852500 0.000000
vt 0.375000 0.092311
vt 0.350000 0.092311
vt 0.147500 0.092311
vt 0.125000 0.092311
vt 0.375000 0.657689
vt 0.625000 0.657689
vt 0.875000 0.092311
vt 0.852500 0.092311
vt 0.650000 0.092311
vt 0.625000 0.092311
vt 0.125000 0.173045
vt 0.375000 0.576955
vt 0.147500 0.173045
vt 0.350000 0.173045
vt 0.375000 0.173045
vt 0.625000 0.173045
vt 0.650000 0.173045
vt 0.852500 0.173045
vt 0.625000 0.576955
vt 0.875000 0.173045
vt 0.375000 0.116368
vt 0.350000 0.116368
vt 0.147500 0.116368
vt 0.125000 0.116368
vt 0.375000 0.633632
vt 0.625000 0.633632
vt 0.875000 0.116368
vt 0.852500 0.116368
vt 0.650000 0.116368
vt 0.625000 0.116368
vt 0.125000 0.144802
vt 0.375000 0.605198
vt 0.147500 0.144802
vt 0.350000 0.144802
vt 0.375000 0.144802
vt 0.625000 0.144802
vt 0.650000 0.144802
vt 0.852500 0.144802
vt 0.625000 0.605198
vt 0.875000 0.144802
vt 0.650000 0.250000
vt 0.650000 0.173045
vt 0.852500 0.173045
vt 0.852500 0.250000
vt 0.852500 0.173045
vt 0.650000 0.173045
vt 0.650000 0.144802
vt 0.852500 0.144802
vt 0.852500 0.144802
vt 0.650000 0.144802
vt 0.650000 0.116368
vt 0.852500 0.116368
vt 0.852500 0.116368
vt 0.650000 0.116368
vt 0.650000 0.092311
vt 0.852500 0.092311
vt 0.650000 0.250000
vt 0.650000 0.173045
vt 0.852500 0.173045
vt 0.852500 0.250000
vt 0.852500 0.116368
vt 0.650000 0.116368
vt 0.650000 0.092311
vt 0.852500 0.092311
vt 0.852500 0.173045
vt 0.650000 0.173045
vt 0.650000 0.144802
vt 0.852500 0.144802
vt 0.852500 0.144802
vt 0.650000 0.144802
vt 0.650000 0.116368
vt 0.852500 0.116368
vt 0.375000 0.000000
vt 0.625000 0.000000
vt 0.625000 0.250000
vt 0.375000 0.250000
vt 0.625000 0.500000
vt 0.375000 0.500000
vt 0.625000 0.750000
vt 0.375000 0.750000
vt 0.625000 1.000000
vt 0.375000 1.000000
vt 0.875000 0.000000
vt 0.875000 0.250000
vt 0.125000 0.000000
vt 0.375000 0.000000
vt 0.375000 0.250000
vt 0.125000 0.250000
vt 0.125000 0.000000
vt 0.375000 0.000000
vt 0.125000 0.000000
vt 0.375000 0.250000
vt 0.125000 0.250000
vt 0.125000 0.250000
vt 0.375000 0.000000
vt 0.625000 0.000000
vt 0.625000 0.250000
vt 0.375000 0.250000
vt 0.625000 0.500000
vt 0.375000 0.500000
vt 0.625000 0.750000
vt 0.375000 0.750000
vt 0.375000 0.750000
vt 0.625000 0.750000
vt 0.625000 1.000000
vt 0.375000 1.000000
vt 0.875000 0.000000
vt 0.875000 0.250000
vt 0.125000 0.000000
vt 0.375000 0.000000
vt 0.375000 0.250000
vt 0.125000 0.250000
vt 0.625000 0.750000
vt 0.625000 1.000000
vt 0.625000 1.000000
vt 0.625000 0.750000
vt 0.625000 1.000000
vt 0.375000 1.000000
vt 0.375000 1.000000
vt 0.375000 0.750000
vt 0.375000 0.750000
vt 0.375000 1.000000
vt 0.375000 0.250000
vt 0.375000 0.000000
vt 0.125000 0.250000
vt 0.125000 0.250000
vt 0.125000 0.000000
vt 0.125000 0.000000
vt 0.375000 0.750000
vt 0.375000 0.750000
vt 0.375000 1.000000
vt 0.375000 1.000000
vn 0.000000 0.000000 1.000000
vn 0.000000 0.000000 1.000000
vn 0.000000 0.000000 1.000000
vn 0.000000 0.000000 1.000000
vn 0.000000 1.000000 0.000000
vn 0.000000 1.000000 0.000000
vn 0.000000 1.000000 0.000000
vn 0.000000 1.000000 0.000000
vn -0.000000 0.000000 -1.000000
vn -0.000000 0.000000 -1.000000
vn 0.000000 0.000000 -1.000000
vn 0.000000 0.000000 -1.000000
vn 0.000000 -1.000000 0.000000
vn 0.000000 -1.000000 0.000000
vn 0.000000 -1.000000 0.000000
vn 0.000000 -1.000000 0.000000
vn 1.000000 0.000000 0.000000
vn 1.000000 0.000000 0.000000
vn 1.000000 -0.000000 0.000000
vn 1.000000 0.000000 0.000000
vn -1.000000 0.000000 0.000000
vn -1.000000 0.000000 0.000000
vn -1.000000 0.000000 0.000000
vn -1.000000 0.000000 0.000000
vn -1.000000 0.000000 0.000000
vn -1.000000 0.000000 0.000000
vn -1.000000 0.000000 0.000000
vn -1.000000 0.000000 0.000000
vn 0.000000 -1.000000 0.000000
vn 0.000000 -1.000000 0.000000
vn 0.000000 -1.000000 0.000000
vn 0.000000 -1.000000 0.000000
vn 1.000000 0.000000 0.000000
vn 1.000000 -0.000000 0.000000
vn 1.000000 0.000000 0.000000
vn 1.000000 0.000000 0.000000
vn 0.000000 1.000000 0.000000
vn 0.000000 1.000000 0.000000
vn 0.000000 1.000000 0.000000
vn 0.000000 1.000000 0.000000
vn -1.000000 0.000000 0.000000
vn -1.000000 0.000000 0.000000
vn -1.000000 0.000000 0.000000
vn -1.000000 0.000000 0.000000
vn -1.000000 0.000000 0.000000
vn -1.000000 0.000000 0.000000
vn -1.000000 0.000000 0.000000
vn -1.000000 0.000000 0.000000
vn 0.000000 0.000000 -1.000000
vn 0.000000 0.000000 -1.000000
vn 0.000000 0.000000 -1.000000
vn 0.000000 0.000000 -1.000000
vn 1.000000 0.000000 0.000000
vn 1.000000 0.000000 0.000000
vn 1.000000 0.000000 0.000000
vn 1.000000 0.000000 0.000000
vn 1.000000 0.000000 0.000000
vn 1.000000 0.000000 0.000000
vn 1.000000 0.000000 0.000000
vn 1.000000 0.000000 0.000000
vn 1.000000 0.000000 0.000000
vn 1.000000 0.000000 0.000000
vn 1.000000 0.000000 0.000000
vn 1.000000 0.000000 0.000000
vn 0.000000 0.000000 1.000000
vn 0.000000 0.000000 1.000000
vn 0.000000 0.000000 1.000000
vn 0.000000 0.000000 1.000000
vn -1.000000 0.000000 0.000000
vn -1.000000 0.000000 0.000000
vn -1.000000 0.000000 0.000000
vn -1.000000 0.000000 0.000000
vn 0.000000 0.000000 1.000000
vn 0.000000 0.000000 1.000000
vn 1.000000 0.000000 0.000000
vn 1.000000 0.000000 0.000000
vn 1.000000 0.000000 0.000000
vn 1.000000 0.000000 0.000000
vn 1.000000 0.000000 0.000000
vn 1.000000 0.000000 0.000000
vn 1.000000 0.000000 0.000000
vn 1.000000 0.000000 0.000000
vn -0.000000 0.000000 -1.000000
vn -0.000000 0.000000 -1.000000
vn -1.000000 0.000000 0.000000
vn -1.000000 0.000000 0.000000
vn -1.000000 0.000000 0.000000
vn -1.000000 0.000000 0.000000
vn 0.000000 0.000000 -1.000000
vn 0.000000 0.000000 -1.000000
vn 1.000000 0.000000 0.000000
vn 1.000000 0.000000 0.000000
vn 1.000000 0.000000 0.000000
vn 1.000000 0.000000 0.000000
vn 1.000000 0.000000 0.000000
vn 1.000000 0.000000 0.000000
vn 1.000000 0.000000 0.000000
vn 1.000000 0.000000 0.000000
vn 0.000000 0.000000 1.000000
vn 0.000000 0.000000 1.000000
vn 1.000000 0.000000 0.000000
vn 1.000000 0.000000 0.000000
vn 1.000000 0.000000 0.000000
vn 1.000000 0.000000 0.000000
vn 1.000000 -0.000000 0.000000
vn 1.000000 0.000000 0.000000
vn 1.000000 -0.000000 0.000000
vn 1.000000 0.000000 0.000000
vn 1.000000 0.000000 0.000000
vn 1.000000 0.000000 0.000000
vn 1.000000 -0.000000 0.000000
vn 1.000000 -0.000000 0.000000
vn 1.000000 0.000000 0.000000
vn 1.000000 0.000000 0.000000
vn 1.000000 -0.000000 0.000000
vn 1.000000 -0.000000 0.000000
vn 1.000000 0.000001 0.000000
vn 1.000000 0.000001 0.000000
vn 1.000000 -0.000001 0.000000
vn 1.000000 -0.000001 0.000000
vn 0.000000 0.000000 -1.000000
vn 0.000000 0.000000 -1.000000
vn 0.000000 0.000000 -1.000000
vn 0.000000 0.000000 -1.000000
vn 0.000000 1.000000 0.000000
vn 0.000000 1.000000 0.000000
vn 0.000000 1.000000 0.000000
vn 0.000000 1.000000 0.000000
vn 0.000000 0.000000 1.000000
vn 0.000000 0.000000 1.000000
vn 0.000000 0.000000 1.000000
vn 0.000000 0.000000 1.000000
vn 0.000000 -1.000000 0.000000
vn 0.000000 -1.000000 0.000000
vn 0.000000 -1.000000 0.000000
vn 0.000000 -1.000000 0.000000
vn 0.000000 -1.000000 0.000000
vn 0.000000 -1.000000 0.000000
vn 0.000000 -1.000000 0.000000
vn 0.000000 -1.000000 0.000000
vn 0.000000 0.000000 -1.000000
vn 0.000000 0.000000 -1.000000
vn 0.000000 0.000000 -1.000000
vn 0.000000 0.000000 -1.000000
vn 0.000000 1.000000 -0.000000
vn 0.000000 1.000000 -0.000000
vn 0.000000 1.000000 -0.000000
vn 0.000000 1.000000 -0.000000
vn 0.000000 0.000000 1.000000
vn 0.000000 0.000000 1.000000
vn 0.000000 0.000000 1.000000
vn 0.000000 0.000000 1.000000
vn 0.000000 -1.000000 0.000000
vn 0.000000 -1.000000 0.000000
vn 0.000000 -1.000000 0.000000
vn 0.000000 -1.000000 0.000000
vn 0.000000 0.000000 -1.000000
vn 0.000000 0.000000 -1.000000
vn 0.000000 0.000000 -1.000000
vn 0.000000 0.000000 -1.000000
vn 0.000000 1.000000 0.000000
vn 0.000000 1.000000 0.000000
vn 0.000000 1.000000 0.000000
vn 0.000000 1.000000 0.000000
vn 0.000000 0.000000 1.000000
vn 0.000000 0.000000 1.000000
vn 0.000000 0.000000 1.000000
vn 0.000000 0.000000 1.000000
vn 0.000000 -1.000000 0.000000
vn 0.000000 -1.000000 0.000000
vn 0.000000 -1.000000 0.000000
vn 0.000000 -1.000000 0.000000
vn 0.000000 0.000000 -1.000000
vn 0.000000 0.000000 -1.000000
vn 0.000000 0.000000 -1.000000
vn 0.000000 0.000000 -1.000000
vn 0.000000 1.000000 0.000000
vn 0.000000 1.000000 0.000000
vn 0.000000 1.000000 0.000000
vn 0.000000 1.000000 0.000000
vn 0.000000 0.000000 1.000000
vn 0.000000 0.000000 1.000000
vn 0.000000 0.000000 1.000000
vn 0.000000 0.000000 1.000000
vn 0.000000 0.000000 1.000000
vn 0.000000 0.000000 1.000000
vn 0.000000 0.000000 1.000000
vn 0.000000 0.000000 1.000000
vn 0.000000 1.000000 0.000000
vn 0.000000 1.000000 0.000000
vn 0.000000 1.000000 0.000000
vn 0.000000 1.000000 0.000000
vn 0.000000 0.000000 -1.000000
vn 0.000000 0.000000 -1.000000
vn 0.000000 0.000000 -1.000000
vn 0.000000 0.000000 -1.000000
vn 0.000000 -1.000000 0.000000
vn 0.000000 -1.000000 0.000000
vn 0.000000 -1.000000 0.000000
vn 0.000000 -1.000000 0.000000
vn 0.986403 -0.164346 0.000000
vn 0.986403 -0.164346 0.000000
vn 0.986403 -0.164346 0.000000
vn 0.986403 -0.164346 0.000000
vn -0.980317 0.197431 0.000000
vn -0.980317 0.197431 0.000000
vn -0.980317 0.197431 0.000000
vn -0.980317 0.197431 0.000000
vn -0.991985 0.126356 -0.000000
vn -0.991985 0.126356 0.000000
vn -0.991987 0.126342 0.000000
vn -0.991987 0.126342 -0.000000
vn -0.991985 0.126356 0.000000
vn -0.991987 0.126343 0.000000
vn -0.991985 0.126356 -0.000000
vn -0.991987 0.126343 -0.000000
vn 0.000000 -1.000000 0.000000
vn 0.000000 -1.000000 0.000000
vn 0.000000 -1.000000 0.000000
vn 0.000000 -1.000000 0.000000
vn 0.000000 0.000000 1.000000
vn 0.000000 0.000000 1.000000
vn 0.000000 0.000000 1.000000
vn 0.000000 0.000000 1.000000
vn 0.000000 1.000000 0.000000
vn 0.000000 1.000000 0.000000
vn 0.000000 1.000000 0.000000
vn 0.000000 1.000000 0.000000
vn 0.000000 0.000000 -1.000000
vn 0.000000 0.000000 -1.000000
vn 0.000000 0.000000 -1.000000
vn 0.000000 0.000000 -1.000000
vn 0.000000 0.000000 1.000000
vn 0.000000 0.000000 1.000000
vn 0.000000 0.000000 1.000000
vn 0.000000 0.000000 1.000000
vn 0.000000 -1.000000 0.000000
vn 0.000000 -1.000000 0.000000
vn 0.000000 -1.000000 0.000000
vn 0.000000 -1.000000 0.000000
vn 0.000000 0.000000 -1.000000
vn 0.000000 0.000000 -1.000000
vn 0.000000 0.000000 -1.000000
vn 0.000000 0.000000 -1.000000
vn 0.000000 1.000000 0.000000
vn 0.000000 1.000000 0.000000
vn 0.000000 1.000000 0.000000
vn 0.000000 1.000000 0.000000
vn 1.000000 0.000001 0.000000
vn 1.000000 0.000001 0.000000
vn 1.000000 0.000001 0.000000
vn 1.000000 0.000001 0.000000
vn -0.997310 -0.072135 -0.013016
vn -0.997310 -0.072135 -0.013016
vn -0.997310 -0.072135 -0.013016
vn -0.997310 -0.072135 -0.013016
vn 0.000000 0.000000 -1.000000
vn 0.000000 0.000000 -1.000000
vn 0.000000 0.000000 -1.000000
vn 0.000000 0.000000 -1.000000
vn 1.000000 -0.000003 0.000000
vn 1.000000 -0.000003 0.000000
vn 1.000000 -0.000003 0.000000
vn 1.000000 -0.000003 0.000000
vn 0.000000 0.000000 1.000000
vn 0.000000 0.000000 1.000000
vn 0.000000 0.000000 1.000000
vn 0.000000 0.000000 1.000000
vn -1.000000 -0.000029 0.000183
vn -1.000000 -0.000029 0.000183
vn -1.000000 -0.000029 0.000183
vn -1.000000 -0.000029 0.000183
vn -0.204828 -0.978798 0.000000
vn -0.204828 -0.978798 0.000000
vn -0.204828 -0.978798 0.000000
vn -0.204828 -0.978798 0.000000
vn 0.000000 0.000000 1.000000
vn 0.000000 0.000000 1.000000
vn 0.000000 0.000000 1.000000
vn 0.000000 0.000000 1.000000
vn 0.204828 0.978798 0.000000
vn 0.204828 0.978798 0.000000
vn 0.204828 0.978798 0.000000
vn 0.204828 0.978798 0.000000
vn 0.000000 0.000000 -1.000000
vn 0.000000 0.000000 -1.000000
vn 0.000000 0.000000 -1.000000
vn 0.000000 0.000000 -1.000000
vn -0.999629 0.010928 0.024931
vn -0.999629 0.010929 0.024932
vn -0.997985 -0.060776 -0.018214
vn -0.997990 -0.060717 -0.018173
vn -0.996346 -0.083457 -0.018178
vn -0.996342 -0.083514 -0.018139
vn -0.992590 -0.118956 0.024802
vn -0.992595 -0.118918 0.024794
vn -1.000000 0.000084 -0.000108
vn -1.000000 0.000084 -0.000108
vn -1.000000 -0.000085 -0.000109
vn -1.000000 -0.000085 -0.000109
vn 0.000000 -0.000194 1.000000
vn 0.000000 -0.000194 1.000000
vn 0.000000 -0.000194 1.000000
vn 0.000000 -0.000194 1.000000
vn 0.000000 -1.000000 -0.000053
vn 0.000000 -1.000000 -0.000053
vn 0.000000 -1.000000 -0.000053
vn 0.000000 -1.000000 -0.000053
vn 0.000000 -0.000192 -1.000000
vn 0.000000 -0.000192 -1.000000
vn 0.000000 -0.000192 -1.000000
vn 0.000000 -0.000192 -1.000000
vn 0.000000 0.000000 -1.000000
vn 0.000000 0.000000 -1.000000
vn 0.000000 0.000000 -1.000000
vn 0.000000 0.000000 -1.000000
vn 0.000000 1.000000 0.000000
vn 0.000000 1.000000 0.000000
vn 0.000000 1.000000 0.000000
vn 0.000000 1.000000 0.000000
vn 0.000000 0.000000 1.000000
vn 0.000000 0.000000 1.000000
vn 0.000000 0.000000 1.000000
vn 0.000000 0.000000 1.000000
s 1
g BreadOven
usemtl initialShadingGroup
f 1/1/1 2/2/2 24/40/3 17/31/4
s 2
f 3/3/5 4/4/6 12/21/7 9/16/8
s 3
f 20/35/9 21/36/10 8/8/11 7/7/12
s 4
f 10/18/13 11/19/14 2/10/15 1/9/16
s 5
f 2/2/17 11/20/18 23/39/19 24/40/20
s 6
f 17/31/21 18/32/22 10/17/23 1/1/24
f 7/13/25 13/23/26 19/33/27 20/34/28
s 4
f 7/7/29 8/8/30 16/29/31 13/24/32
s 5
f 21/37/33 22/38/34 16/30/35 8/11/36
s 2
f 14/26/37 15/27/38 6/6/39 5/5/40
s 6
f 18/32/22 19/33/27 13/23/26 10/17/23
s 2
f 9/16/8 12/21/7 15/27/38 14/26/37
s 5
f 22/38/34 23/39/19 11/20/18 16/30/35
s 4
f 13/24/32 16/29/31 11/19/14 10/18/13
s 6
f 9/15/41 27/44/42 28/45/43 3/3/44
f 14/25/45 26/43/46 27/44/42 9/15/41
f 25/41/47 26/43/46 14/25/45 5/14/48
s 3
f 5/5/49 6/6/50 32/49/51 25/42/52
s 5
f 15/28/53 31/48/54 32/50/55 6/12/56
s off
f 66/87/57 65/88/58 67/89/59 68/90/60
s 5
f 29/46/61 30/47/62 12/22/63 4/4/64
s 1
f 28/45/65 29/46/66 4/4/67 3/3/68
s 6
f 20/34/28 19/33/27 35/53/69 36/54/70
f 34/52/71 35/53/69 19/33/27 18/32/22
f 33/51/72 34/52/71 18/32/22 17/31/21
s 1
f 17/31/4 24/40/3 40/60/73 33/51/74
s 5
f 24/40/20 23/39/19 39/59/75 40/60/76
s off
f 69/91/77 70/92/78 71/93/79 72/94/80
s 5
f 37/57/81 38/58/82 22/38/34 21/37/33
s 3
f 36/55/83 37/56/84 21/36/10 20/35/9
s 6
f 28/45/43 27/44/42 43/64/85 44/65/86
f 27/44/42 26/43/46 42/63/87 43/64/85
f 41/61/88 42/63/87 26/43/46 25/41/47
s 3
f 25/42/52 32/49/51 48/69/89 41/62/90
s 5
f 32/50/55 31/48/54 47/68/91 48/70/92
s off
f 74/95/93 73/96/94 75/97/95 76/98/96
s 5
f 45/66/97 46/67/98 30/47/62 29/46/61
s 1
f 44/65/99 45/66/100 29/46/66 28/45/65
s 6
f 36/54/70 35/53/69 42/63/87 41/61/88
f 43/64/85 42/63/87 35/53/69 34/52/71
f 44/65/86 43/64/85 34/52/71 33/51/72
s 1
f 33/51/74 40/60/73 45/66/100 44/65/99
s 5
f 40/60/76 39/59/75 46/67/98 45/66/97
s off
f 78/99/101 77/100/102 79/101/103 80/102/104
s 5
f 48/70/92 47/68/91 38/58/82 37/57/81
s 3
f 41/62/90 48/69/89 37/56/84 36/55/83
s 5
f 12/22/63 30/47/62 49/72/105 50/71/106
f 30/47/62 31/48/54 51/73/107 49/72/105
f 31/48/54 15/28/53 52/74/108 51/73/107
f 15/28/53 12/22/63 50/71/106 52/74/108
f 31/48/54 30/47/62 53/76/109 54/75/110
f 30/47/62 46/67/98 55/77/111 53/76/109
f 46/67/98 47/68/91 56/78/112 55/77/111
f 47/68/91 31/48/54 54/75/110 56/78/112
f 47/68/91 46/67/98 57/80/113 58/79/114
f 46/67/98 39/59/75 59/81/115 57/80/113
f 39/59/75 38/58/82 60/82/116 59/81/115
f 38/58/82 47/68/91 58/79/114 60/82/116
f 38/58/82 39/59/75 62/84/117 61/83/118
f 39/59/75 23/39/19 63/85/119 62/84/117
f 23/39/19 22/38/34 64/86/120 63/85/119
f 22/38/34 38/58/82 61/83/118 64/86/120
s off
f 50/71/121 49/72/122 65/88/123 66/87/124
f 49/72/125 51/73/126 67/89/127 65/88/128
f 51/73/129 52/74/130 68/90/131 67/89/132
f 52/74/133 50/71/134 66/87/135 68/90/136
f 61/83/137 62/84/138 70/92/139 69/91/140
f 62/84/141 63/85/142 71/93/143 70/92/144
f 63/85/145 64/86/146 72/94/147 71/93/148
f 64/86/149 61/83/150 69/91/151 72/94/152
f 54/75/153 53/76/154 73/96/155 74/95/156
f 53/76/157 55/77/158 75/97/159 73/96/160
f 55/77/161 56/78/162 76/98/163 75/97/164
f 56/78/165 54/75/166 74/95/167 76/98/168
f 58/79/169 57/80/170 77/100/171 78/99/172
f 57/80/173 59/81/174 79/101/175 77/100/176
f 59/81/177 60/82/178 80/102/179 79/101/180
f 60/82/181 58/79/182 78/99/183 80/102/184
f 81/103/185 82/104/186 84/105/187 83/106/188
f 83/106/189 84/105/190 86/107/191 85/108/192
f 85/108/193 86/107/194 88/109/195 87/110/196
f 87/110/197 88/109/198 82/111/199 81/112/200
f 82/104/201 88/113/202 86/114/203 84/105/204
f 93/115/205 94/116/206 95/117/207 96/118/208
s 13
f 87/119/209 81/103/210 90/120/211 89/121/212
f 81/103/210 83/106/213 91/122/214 90/120/211
f 83/106/213 85/123/215 92/124/216 91/122/214
f 85/123/215 87/119/209 89/121/212 92/124/216
s off
f 89/121/217 90/120/218 94/116/219 93/115/220
f 90/120/221 91/122/222 95/117/223 94/116/224
f 91/122/225 92/124/226 96/118/227 95/117/228
f 92/124/229 89/121/230 93/115/231 96/118/232
f 97/125/233 99/128/234 100/127/235 98/126/236
f 99/128/237 101/130/238 102/129/239 100/127/240
f 101/130/241 103/132/242 104/131/243 102/129/244
f 105/133/245 108/136/246 107/135/247 106/134/248
f 98/126/249 100/127/250 102/138/251 104/137/252
f 119/139/253 122/142/254 121/141/255 120/140/256
f 103/132/257 105/133/258 106/134/259 104/131/260
f 109/143/261 112/146/262 111/145/263 110/144/264
f 98/147/265 107/135/266 108/136/267 97/148/268
f 120/149/269 124/152/270 123/151/271 119/150/272
f 104/131/273 109/143/274 110/144/275 98/147/276
f 98/147/277 110/144/278 111/145/279 107/135/280
f 107/135/281 111/145/282 112/146/283 106/134/284
f 106/134/285 112/146/286 109/143/287 104/131/288
s 14
f 97/125/289 114/154/290 115/153/291 99/128/292
f 99/128/292 115/153/291 116/156/293 101/155/294
f 101/155/294 116/156/293 113/158/295 103/157/296
f 103/132/296 113/160/295 117/159/297 105/133/298
f 105/133/298 117/159/297 118/161/299 108/136/300
f 108/136/300 118/161/299 114/162/290 97/148/289
s off
f 114/154/301 120/140/302 121/141/303 115/153/304
f 115/153/305 121/141/306 122/142/307 116/156/308
f 116/156/309 122/142/310 119/139/311 113/158/312
f 113/160/313 119/150/314 123/151/315 117/159/316
f 117/159/317 123/151/318 124/152/319 118/161/320
f 118/161/321 124/152/322 120/149/323 114/162/324
